<?xml version="1.0" standalone="no"?>
<!DOCTYPE svg PUBLIC "-//W3C//DTD SVG 20010904//EN"
 "http://www.w3.org/TR/2001/REC-SVG-20010904/DTD/svg10.dtd">
<svg version="1.0" xmlns="http://www.w3.org/2000/svg"
 width="815.000000pt" height="815.000000pt" viewBox="0 0 815.000000 815.000000"
 preserveAspectRatio="xMidYMid meet">
<metadata>
Created by potrace 1.11, written by Peter Selinger 2001-2013
</metadata>
<g transform="translate(0.000000,815.000000) scale(0.100000,-0.100000)"
fill="#000000" stroke="none">
<path d="M158 8028 c4 -68 6 -344 7 -615 0 -270 1 -490 3 -488 11 11 17 811 7
1025 -2 47 -4 111 -4 143 -1 31 -5 57 -10 57 -5 0 -7 -51 -3 -122z"/>
<path d="M452 8113 l37 -38 -57 -19 c-69 -22 -107 -53 -91 -73 15 -18 40 -17
33 1 -6 17 88 66 126 66 31 0 90 -46 90 -70 0 -23 -47 -80 -66 -80 -22 0 -17
-39 12 -87 14 -25 23 -47 20 -50 -3 -3 -19 -7 -36 -9 -68 -8 -136 -58 -123
-90 7 -20 20 -17 26 6 3 11 12 20 20 20 17 0 235 -224 250 -257 6 -13 17 -23
25 -23 11 0 9 8 -8 37 -21 36 -16 52 17 53 15 0 35 35 26 44 -4 3 -14 -1 -24
-10 -13 -12 -28 -15 -54 -10 -43 8 -51 31 -39 114 10 73 8 80 -27 120 -16 18
-29 36 -29 40 0 4 27 7 61 7 47 0 62 -4 70 -17 6 -10 15 -18 20 -18 6 0 9 8 7
18 -3 12 11 24 54 44 43 20 58 32 58 47 0 14 -5 19 -15 15 -8 -4 -15 -10 -15
-14 0 -5 -21 -15 -47 -24 -44 -15 -49 -15 -58 -1 -5 9 -27 43 -48 76 -26 40
-36 65 -32 79 8 26 -35 70 -70 70 -16 0 -45 15 -69 35 -24 19 -51 35 -62 35
-14 0 -11 -8 18 -37z m143 -73 c-3 -5 -1 -10 4 -10 6 0 11 -5 11 -11 0 -8 -5
-8 -15 1 -13 11 -12 30 1 30 3 0 2 -4 -1 -10z m63 -139 c17 -28 32 -54 32 -60
0 -13 -108 -7 -122 7 -5 5 -7 19 -4 30 8 24 44 72 54 72 4 0 22 -22 40 -49z
m-49 -185 c9 -10 8 -28 -1 -71 l-13 -57 -60 63 -60 63 30 7 c52 11 92 10 104
-5z"/>
<path d="M1025 8088 c-4 -35 -9 -74 -11 -88 -1 -14 -5 -54 -9 -90 -8 -100 10
-49 24 65 6 55 14 117 16 138 3 20 1 37 -4 37 -4 0 -12 -28 -16 -62z"/>
<path d="M5426 8105 c2 -63 10 -66 11 -5 1 28 -2 50 -5 50 -4 0 -7 -20 -6 -45z"/>
<path d="M5560 8140 c0 -5 5 -10 10 -10 6 0 10 5 10 10 0 6 -4 10 -10 10 -5 0
-10 -4 -10 -10z"/>
<path d="M5550 8108 c0 -14 -9 -32 -59 -120 -19 -34 -28 -59 -22 -63 6 -3 28
29 49 72 47 93 57 123 43 123 -6 0 -11 -6 -11 -12z"/>
<path d="M7460 8111 c0 -6 15 -11 35 -11 34 0 47 -13 23 -23 -7 -3 12 -6 42
-6 59 -1 92 11 75 28 -15 15 -175 27 -175 12z"/>
<path d="M6830 8055 c-63 -16 -61 -39 5 -43 41 -2 47 0 31 9 -19 11 -19 12 -1
25 27 20 16 22 -35 9z"/>
<path d="M6890 8059 c0 -5 5 -7 10 -4 6 3 10 8 10 11 0 2 -4 4 -10 4 -5 0 -10
-5 -10 -11z"/>
<path d="M5224 8045 c-10 -8 -14 -15 -8 -15 6 0 17 7 24 15 16 19 9 19 -16 0z"/>
<path d="M4174 7974 c-22 -24 -35 -44 -28 -44 7 0 16 5 19 10 13 22 33 8 53
-37 20 -46 21 -47 23 -18 1 17 1 34 0 38 -1 4 -4 24 -7 45 -3 20 -9 40 -12 44
-4 3 -25 -13 -48 -38z"/>
<path d="M5200 8009 c0 -5 5 -7 10 -4 6 3 10 8 10 11 0 2 -4 4 -10 4 -5 0 -10
-5 -10 -11z"/>
<path d="M5431 7932 c-1 -24 -10 -71 -20 -105 -27 -86 -33 -120 -23 -113 5 3
15 26 21 51 6 25 17 45 24 45 9 0 14 16 16 47 1 26 5 51 8 56 4 6 1 7 -7 2 -9
-6 -12 -4 -8 6 3 8 2 23 -3 34 -6 15 -8 9 -8 -23z"/>
<path d="M3933 7925 c0 -8 9 -15 20 -15 11 0 18 1 16 3 -2 1 -11 8 -20 15 -13
9 -16 9 -16 -3z"/>
<path d="M4090 7900 c-9 -6 -10 -10 -3 -10 6 0 15 5 18 10 8 12 4 12 -15 0z"/>
<path d="M4028 7878 c-9 -5 -6 -7 9 -5 12 2 25 6 28 8 8 9 -23 6 -37 -3z"/>
<path d="M995 7830 c3 -5 8 -10 11 -10 2 0 4 5 4 10 0 6 -5 10 -11 10 -5 0 -7
-4 -4 -10z"/>
<path d="M3905 7830 c-3 -5 -1 -10 4 -10 6 0 11 5 11 10 0 6 -2 10 -4 10 -3 0
-8 -4 -11 -10z"/>
<path d="M4787 7829 c7 -7 15 -10 18 -7 3 3 -2 9 -12 12 -14 6 -15 5 -6 -5z"/>
<path d="M3865 7820 c-3 -5 -2 -10 4 -10 5 0 13 5 16 10 3 6 2 10 -4 10 -5 0
-13 -4 -16 -10z"/>
<path d="M4827 7819 c7 -7 15 -10 18 -7 3 3 -2 9 -12 12 -14 6 -15 5 -6 -5z"/>
<path d="M7033 7823 c9 -2 23 -2 30 0 6 3 -1 5 -18 5 -16 0 -22 -2 -12 -5z"/>
<path d="M7105 7820 c11 -5 43 -9 70 -9 37 0 45 3 30 9 -11 5 -42 9 -70 9 -37
0 -45 -3 -30 -9z"/>
<path d="M4874 7805 c11 -8 27 -15 35 -15 10 1 7 6 -9 15 -33 19 -50 18 -26 0z"/>
<path d="M6442 7811 c-18 -11 -4 -40 24 -47 32 -8 56 3 27 11 -13 4 -23 13
-23 21 0 17 -13 24 -28 15z"/>
<path d="M987 7778 c-2 -18 -1 -40 4 -48 5 -10 8 1 9 33 0 55 -6 61 -13 15z"/>
<path d="M3775 7800 c-13 -6 -15 -9 -5 -9 8 0 22 4 30 9 18 12 2 12 -25 0z"/>
<path d="M4935 7792 c2 -3 23 -13 45 -23 30 -13 40 -15 40 -5 0 7 -20 17 -45
23 -25 6 -43 8 -40 5z"/>
<path d="M5373 7678 c-2 -18 0 -20 7 -8 12 18 13 30 2 30 -4 0 -9 -10 -9 -22z"/>
<path d="M5442 7660 c-15 -25 -15 -27 1 -27 6 0 13 11 13 24 2 28 2 28 -14 3z"/>
<path d="M3423 7639 c-13 -5 -23 -14 -23 -21 0 -9 3 -9 10 2 5 8 10 11 10 7 0
-5 -9 -21 -20 -37 -11 -15 -17 -29 -15 -32 3 -3 -1 -5 -8 -5 -9 0 -12 9 -9 24
2 13 -1 23 -7 23 -13 0 -121 -107 -121 -120 0 -6 -7 -10 -15 -10 -9 0 -25 -16
-36 -35 -12 -20 -30 -40 -41 -46 -17 -9 -18 -13 -7 -20 8 -5 10 -9 4 -9 -5 0
-17 5 -25 10 -11 7 -11 10 -2 10 9 0 10 5 3 18 -5 9 -9 35 -10 57 -2 55 -18
175 -20 148 0 -12 -5 -24 -10 -27 -5 -4 -12 -29 -16 -56 -4 -27 -11 -53 -16
-56 -6 -3 -7 -14 -4 -25 6 -19 -22 -79 -37 -79 -4 0 -8 -8 -8 -18 0 -9 -9 -23
-20 -30 -17 -10 -20 -10 -20 3 0 8 5 14 12 13 7 -2 13 2 13 7 1 6 4 17 8 25
15 40 16 68 3 73 -17 7 -40 -18 -31 -32 3 -7 0 -8 -9 -5 -20 8 -21 33 -1 40 9
4 20 16 27 28 7 14 -2 10 -28 -15 -22 -20 -49 -44 -60 -55 -12 -10 -33 -36
-48 -58 -14 -21 -44 -59 -66 -85 -22 -25 -46 -55 -54 -66 -12 -16 -17 -18 -27
-7 -11 10 -11 12 0 12 7 0 11 10 10 23 -2 12 3 32 9 45 19 34 3 27 -47 -20
-24 -24 -41 -37 -37 -30 4 6 3 12 -2 12 -6 0 -15 -13 -21 -30 -10 -31 -25 -43
-15 -12 4 9 -3 2 -15 -15 -21 -34 -36 -39 -60 -24 -11 7 -11 13 0 32 10 20 10
22 -2 13 -8 -5 -24 -9 -37 -8 -18 1 -20 -1 -10 -13 6 -8 7 -13 2 -12 -22 4
-35 -2 -28 -13 5 -7 3 -8 -5 -3 -9 5 -9 11 -3 17 13 13 -13 42 -31 35 -9 -4
-9 -6 1 -6 6 -1 12 -9 12 -20 0 -21 -33 -34 -48 -19 -6 6 -12 3 -16 -7 -3 -9
-2 -13 4 -10 6 3 10 -2 10 -11 0 -14 -7 -11 -34 15 -22 22 -46 34 -72 37 -48
6 -63 9 -89 18 -11 4 -38 14 -60 21 -39 14 -39 14 -17 -3 13 -9 42 -32 65 -51
23 -18 52 -38 64 -44 12 -5 19 -15 16 -23 -6 -17 -29 -18 -37 -1 -3 6 -4 3 -1
-8 4 -18 0 -20 -35 -20 -32 0 -39 3 -35 14 3 9 3 12 -1 8 -4 -4 -27 12 -51 35
-49 48 -56 43 -14 -11 15 -20 31 -47 35 -61 3 -14 3 -19 0 -12 -11 25 -26 12
-19 -18 5 -21 2 -35 -9 -46 -12 -11 -13 -20 -6 -33 12 -24 1 -34 -18 -18 -13
9 -14 9 -8 0 9 -15 1 -16 -42 -4 -38 11 -40 4 -7 -28 25 -23 32 -41 16 -41 -5
0 -14 7 -21 15 -18 22 -33 18 -20 -5 10 -18 7 -19 -49 -17 -33 2 -58 0 -55 -4
7 -11 -19 -17 -37 -8 -8 4 -22 3 -30 -2 -12 -8 -12 -10 1 -8 19 3 95 -29 87
-37 -3 -3 -14 -1 -24 4 -10 5 -39 12 -64 14 -27 3 -58 14 -74 26 -15 12 -32
19 -38 15 -6 -4 -36 -6 -66 -5 l-56 1 50 -16 c94 -29 105 -35 105 -54 0 -11
-6 -19 -14 -19 -8 0 -16 -6 -19 -12 -3 -10 -7 -10 -19 -1 -17 15 -28 7 -28
-19 0 -10 -5 -18 -10 -18 -7 0 -7 -6 0 -19 13 -25 13 -81 0 -81 -6 0 -22 7
-35 16 -13 9 -30 14 -37 11 -7 -2 8 -17 35 -33 50 -30 56 -41 32 -50 -12 -5
-12 -10 -3 -27 9 -17 7 -24 -11 -38 -12 -10 -29 -15 -37 -12 -10 4 -12 0 -8
-11 4 -11 1 -16 -11 -16 -13 0 -15 -3 -6 -13 8 -11 4 -14 -19 -16 -61 -3 -70
-6 -70 -16 0 -5 -15 -17 -32 -24 -52 -23 -135 -82 -95 -68 30 11 18 -1 -19
-19 -29 -14 -42 -15 -71 -6 -34 10 -34 10 -18 -8 17 -18 16 -20 -7 -30 -25
-12 -36 -45 -11 -36 7 3 13 -1 13 -9 0 -8 -7 -15 -15 -15 -9 0 -18 -6 -21 -14
-8 -20 -42 -27 -142 -27 -48 -1 -82 -3 -77 -5 46 -18 121 -31 126 -22 3 5 9 0
12 -11 7 -27 1 -30 -71 -33 -51 -2 -58 -4 -44 -15 15 -11 13 -12 -15 -13 -41
0 -42 -12 -3 -27 36 -14 39 -33 5 -33 -25 0 -37 -30 -12 -30 7 0 4 -7 -7 -15
-15 -12 -16 -15 -5 -15 9 0 25 -11 38 -24 l22 -23 -23 -17 -23 -17 30 5 c17 3
24 3 18 0 -7 -3 -13 -12 -13 -20 0 -8 -3 -14 -7 -14 -5 0 -25 -16 -45 -35 -35
-34 -56 -46 -43 -25 3 6 -3 10 -14 10 -11 0 -23 -4 -26 -10 -3 -5 3 -10 14
-10 11 0 22 -4 25 -8 6 -11 -51 -66 -78 -76 -10 -3 -16 -9 -14 -12 3 -3 23 2
43 10 55 23 66 21 52 -9 -7 -14 -28 -31 -49 -39 -54 -22 -53 -33 4 -40 28 -4
60 -12 70 -17 11 -6 18 -6 18 0 0 5 -6 12 -12 14 -8 4 -7 6 3 6 9 1 22 -5 28
-13 10 -11 8 -19 -6 -35 -9 -12 -21 -21 -26 -21 -12 0 -40 -30 -30 -31 4 -1
16 -1 25 0 10 1 27 -3 39 -9 21 -12 21 -12 -7 -32 -24 -16 -40 -18 -93 -14
-54 4 -77 -2 -38 -11 7 -1 33 -8 59 -16 41 -11 45 -14 30 -25 -9 -7 -11 -10
-4 -7 24 12 11 -18 -30 -68 -24 -29 -50 -60 -58 -70 -8 -11 -21 -25 -28 -33
-8 -8 -9 -14 -3 -14 21 0 11 -20 -14 -26 -32 -8 -32 -23 0 -19 30 3 31 -2 8
-29 -10 -12 -14 -18 -9 -14 13 11 36 -11 29 -28 -3 -8 0 -14 6 -14 17 0 13
-21 -6 -37 -16 -13 -16 -13 4 -4 12 6 31 11 43 11 17 0 20 -4 15 -21 -6 -19
-4 -20 24 -14 37 8 41 -7 6 -23 -14 -6 -25 -19 -25 -27 0 -10 -5 -13 -12 -9
-7 4 -8 3 -4 -4 4 -7 25 -12 47 -12 22 0 47 -7 55 -15 13 -13 13 -18 -1 -44
-19 -39 -19 -47 2 -30 15 12 16 12 10 -3 -3 -9 1 -22 8 -28 10 -8 13 -26 10
-58 -4 -50 -19 -66 -46 -49 -13 8 -21 7 -34 -6 -15 -16 -15 -17 5 -15 36 5 47
-25 27 -69 l-18 -38 30 35 30 35 1 -33 c0 -18 -5 -42 -11 -54 -12 -23 -2 -40
11 -18 8 12 10 12 16 -3 3 -10 4 -28 2 -41 -4 -18 -1 -23 10 -18 11 4 13 2 6
-9 -4 -8 -9 -19 -10 -25 -1 -6 -5 -22 -9 -34 -6 -19 -4 -22 11 -18 17 4 19 -2
19 -72 0 -46 6 -87 14 -102 9 -18 10 -31 3 -44 -6 -11 -20 -78 -32 -149 -19
-107 -22 -154 -18 -270 3 -77 10 -151 16 -165 5 -14 20 -50 32 -80 36 -89 140
-293 160 -315 10 -11 20 -31 22 -45 1 -14 7 -28 11 -31 4 -3 9 -16 10 -27 1
-16 8 -22 24 -22 17 0 23 -6 23 -23 0 -13 5 -28 12 -35 7 -7 9 -12 5 -12 -4 0
1 -8 11 -18 9 -10 22 -17 28 -15 6 2 15 -13 20 -34 5 -21 15 -37 22 -36 7 2 9
-4 5 -14 -5 -12 -2 -15 14 -11 16 4 19 1 16 -16 -3 -13 2 -28 11 -35 9 -8 16
-22 16 -32 0 -12 6 -17 20 -14 17 3 19 0 14 -22 -5 -18 -4 -24 5 -19 6 4 14 0
17 -8 3 -9 12 -16 20 -16 11 0 11 -5 2 -25 -10 -22 -8 -29 15 -53 15 -16 27
-34 27 -42 0 -7 9 -23 20 -35 11 -11 21 -38 22 -58 3 -34 19 -49 32 -28 3 5
15 11 25 14 19 5 19 3 5 -18 -13 -20 -13 -24 2 -39 14 -14 15 -22 5 -42 -14
-31 -14 -37 -1 -29 6 3 17 0 25 -9 13 -13 13 -16 0 -29 -13 -13 -13 -16 2 -21
12 -5 14 -9 5 -18 -17 -17 -15 -28 4 -28 14 0 15 -21 11 -178 -6 -203 -47
-542 -67 -542 -4 0 -6 -9 -3 -20 6 -22 -10 -95 -42 -195 -13 -38 -33 -104 -46
-145 -12 -41 -38 -97 -57 -123 -43 -60 -186 -177 -216 -177 -29 0 -169 -35
-218 -55 -31 -12 -130 -76 -148 -95 -3 -3 -25 -19 -50 -35 -25 -17 -54 -38
-65 -48 -11 -10 -31 -20 -45 -24 -14 -3 -34 -13 -45 -22 -11 -9 -36 -25 -55
-35 -19 -10 -49 -32 -66 -48 -17 -15 -34 -25 -38 -21 -4 5 -6 3 -4 -4 4 -15
-55 -67 -100 -89 -41 -19 -155 -27 -145 -10 4 6 0 5 -9 -2 -8 -6 -26 -12 -39
-11 -13 0 -59 -5 -102 -11 -43 -6 -82 -8 -86 -5 -5 3 -11 -1 -14 -9 -3 -8 -16
-12 -31 -11 -19 2 -26 -1 -26 -13 0 -14 -2 -14 -9 -3 -5 8 -9 -44 -10 -133
l-1 -146 1889 0 c1744 0 1890 1 1902 17 11 13 11 17 2 20 -7 3 -13 9 -13 15 0
6 6 8 14 5 15 -6 26 12 26 44 0 17 3 18 21 8 16 -8 24 -8 33 2 8 9 7 11 -6 6
-10 -4 -18 -2 -18 3 0 6 5 10 12 10 20 0 -6 20 -32 25 -29 6 -38 14 -14 13 20
-1 74 18 74 26 0 3 -8 2 -17 -1 -16 -6 -16 -5 -5 10 8 8 20 13 28 10 8 -3 14
-1 14 5 0 5 -6 12 -14 15 -21 8 -18 67 3 65 54 -4 67 2 65 30 -2 41 -3 44 -13
37 -5 -3 -12 -1 -16 4 -3 6 -13 7 -22 4 -11 -4 -14 -3 -9 6 4 6 16 9 26 6 11
-3 28 -1 39 4 18 10 20 8 18 -16 -2 -30 22 -40 31 -13 5 13 3 13 -11 1 -15
-12 -16 -10 -11 18 4 21 3 31 -5 31 -7 0 -9 5 -6 10 3 6 -2 10 -12 10 -15 0
-16 2 -3 10 11 7 19 5 28 -7 6 -9 12 -13 12 -7 0 5 5 2 10 -6 8 -13 10 -13 10
2 0 23 40 45 50 28 4 -7 10 0 13 19 6 27 10 30 37 27 17 -2 33 1 37 7 4 6 1 7
-8 3 -8 -4 -3 1 11 12 23 19 46 21 35 2 -3 -4 0 -10 7 -12 17 -6 41 19 32 34
-5 8 -2 9 11 5 14 -6 16 -3 12 12 -3 15 -1 18 11 14 11 -5 13 -3 7 7 -5 8 -3
11 6 8 7 -2 22 3 32 12 13 13 81 35 137 45 36 6 210 50 225 56 103 45 292 98
385 108 144 16 240 44 240 72 0 6 -4 8 -9 4 -16 -9 -71 -13 -65 -4 3 5 1 9 -5
9 -5 0 -12 -4 -16 -10 -3 -5 -13 -6 -22 -3 -9 4 -14 2 -10 -3 3 -6 -14 -11
-42 -11 -44 -1 -48 1 -44 18 5 16 0 19 -31 19 -20 0 -36 5 -36 11 0 6 9 8 23
4 19 -5 20 -5 4 5 -10 7 -25 9 -33 6 -9 -3 -12 -1 -9 4 3 6 13 10 21 10 8 0
14 4 14 9 0 11 -56 32 -64 24 -3 -4 -6 1 -6 11 0 10 5 14 11 10 7 -4 10 -2 8
5 -8 23 -22 16 -33 -16 -9 -26 -14 -30 -28 -22 -10 6 -18 18 -18 27 1 16 1 16
11 -1 13 -23 29 -13 29 19 0 14 -4 22 -10 19 -5 -3 -10 2 -10 12 0 13 -4 10
-15 -11 -8 -15 -15 -36 -15 -46 0 -10 -6 -20 -13 -23 -16 -6 -41 29 -27 38 6
3 10 14 10 23 0 14 -2 15 -9 3 -7 -11 -12 -6 -18 20 -9 34 -31 43 -25 11 2
-13 0 -12 -10 3 -6 11 -19 26 -27 33 -14 12 -14 13 2 8 9 -3 17 -1 17 4 0 6
-7 10 -15 10 -8 0 -15 5 -15 11 0 5 -5 7 -11 3 -7 -4 -10 4 -7 22 2 23 -1 30
-18 32 -18 3 -21 -1 -17 -22 3 -16 1 -26 -6 -26 -6 0 -11 7 -11 15 0 8 -5 15
-11 15 -6 0 -8 7 -5 15 3 8 8 21 11 28 5 14 -32 63 -42 54 -3 -4 0 -14 8 -24
9 -11 10 -14 2 -9 -8 4 -13 1 -13 -8 0 -9 4 -16 9 -16 5 0 7 -9 4 -20 -6 -24
-23 -27 -23 -4 0 8 -4 13 -9 10 -11 -7 -22 49 -14 71 7 17 6 17 -11 1 -27 -27
-30 -21 -6 12 22 31 46 41 36 15 -3 -8 -1 -15 5 -15 7 0 8 12 4 31 -6 24 -4
30 5 24 9 -6 11 -4 5 5 -4 7 -8 30 -9 51 -1 21 -5 41 -8 45 -4 3 3 15 15 26
12 11 16 17 10 13 -8 -4 -13 1 -14 14 -1 12 -2 29 -3 39 -1 19 -28 34 -37 20
-14 -22 -37 5 -37 44 -1 23 -8 48 -16 57 -15 14 -16 12 -18 -24 -1 -22 -2 -47
-2 -57 0 -10 -10 -18 -28 -20 -26 -4 -29 -2 -26 21 1 14 -1 32 -5 38 -6 10 -2
11 17 3 18 -6 27 -6 32 2 4 7 2 14 -4 16 -7 2 -12 10 -12 18 0 8 -4 14 -10 14
-5 0 -10 7 -10 15 0 8 5 15 10 15 6 0 10 -4 10 -10 0 -5 5 -10 10 -10 18 0 11
18 -10 25 -38 12 -16 106 33 140 12 8 16 15 10 15 -6 0 -18 -7 -27 -15 -35
-35 -55 -7 -25 35 21 28 22 31 5 49 -16 17 -16 19 3 24 11 2 24 0 30 -6 8 -8
10 -2 7 21 -2 23 1 32 11 32 8 0 12 4 9 9 -3 5 4 11 17 15 12 3 24 1 25 -4 2
-6 13 -10 25 -10 29 0 57 -19 40 -27 -7 -2 -13 -9 -13 -15 0 -6 6 -6 15 2 8 7
24 10 35 7 11 -3 20 -1 20 4 0 15 22 10 36 -9 13 -16 13 -16 14 1 0 9 5 17 12
17 6 0 2 8 -10 18 -14 13 -18 22 -11 33 6 10 9 11 9 1 0 -7 5 -10 11 -7 6 4
13 -2 16 -14 3 -12 10 -21 15 -21 6 0 8 7 4 15 -3 9 0 15 9 15 19 0 28 17 17
36 -8 14 -10 14 -21 0 -8 -9 -18 -16 -24 -16 -7 0 -7 4 1 12 7 7 12 19 12 28
0 13 -2 13 -10 0 -5 -8 -10 -12 -12 -10 -2 3 -18 26 -35 51 -18 26 -31 48 -29
50 3 2 -10 5 -27 6 -21 2 -27 0 -18 -6 10 -6 10 -10 1 -16 -19 -12 -24 3 -10
29 9 18 19 23 36 20 13 -2 24 0 24 5 0 5 9 7 20 4 11 -3 17 -9 14 -14 -8 -13
10 -11 25 4 11 10 12 9 6 -2 -6 -11 -2 -12 21 -6 16 4 41 9 57 10 29 2 51 15
24 15 -22 0 -30 17 -17 37 9 15 10 14 5 -7 l-7 -25 17 23 c9 12 13 27 9 34 -4
6 -3 8 4 4 6 -3 13 -2 17 4 4 6 11 8 16 5 5 -3 6 0 3 8 -8 23 26 30 49 10 11
-10 17 -13 13 -6 -6 12 34 11 89 -2 11 -3 14 -2 8 1 -7 3 -13 10 -13 15 0 9
106 3 122 -7 5 -3 7 0 6 8 -2 9 7 13 27 12 17 0 34 6 38 13 5 7 12 11 18 8 5
-3 6 1 3 10 -5 13 -13 14 -38 8 -17 -4 -65 -7 -106 -6 -42 1 -78 -3 -81 -9 -8
-13 -44 6 -53 27 -3 9 -2 13 3 10 5 -3 12 -1 16 5 3 5 -1 10 -10 10 -11 0 -15
7 -13 22 2 18 -3 23 -32 29 -19 4 -37 3 -41 -2 -3 -5 -24 -6 -51 -1 -27 6 -53
5 -63 0 -21 -12 -35 0 -15 12 21 13 3 12 -22 -1 -15 -8 -23 -8 -32 1 -8 8 -7
10 7 4 15 -5 17 -1 15 29 -2 27 -6 33 -15 25 -15 -12 -17 0 -4 21 6 9 2 26
-10 48 -10 18 -19 42 -19 53 0 10 -5 22 -10 25 -6 4 -10 3 -9 -2 4 -22 -3 -33
-20 -33 -13 0 -18 5 -14 18 2 10 -3 31 -11 47 -15 28 -16 28 -16 7 0 -13 -4
-20 -10 -17 -5 3 -10 1 -10 -5 0 -7 9 -9 23 -6 12 3 16 3 9 0 -6 -3 -9 -11 -5
-17 3 -7 2 -9 -2 -4 -5 4 -15 1 -24 -7 -14 -13 -16 -10 -15 35 0 38 -3 49 -13
45 -7 -3 -13 1 -13 9 0 8 -4 15 -10 15 -5 0 -10 -9 -10 -19 0 -11 -5 -23 -10
-26 -6 -4 -9 -14 -8 -23 2 -10 -3 -16 -11 -14 -9 2 -12 -4 -9 -16 4 -15 1 -18
-13 -15 -9 3 -15 11 -13 18 4 9 -2 13 -20 11 -15 -2 -23 1 -19 7 4 6 0 8 -9 4
-9 -3 -30 5 -49 19 -39 28 -35 28 -42 10 -4 -10 -1 -13 7 -10 17 6 31 -12 17
-21 -15 -9 -1 -35 19 -35 10 0 21 6 23 13 3 7 6 5 6 -5 1 -10 -6 -18 -14 -18
-8 0 -15 -4 -15 -10 0 -5 5 -10 10 -10 6 0 10 -7 10 -15 0 -9 -6 -12 -16 -8
-14 5 -15 3 -5 -15 9 -17 8 -22 -9 -27 -12 -4 -27 -1 -35 5 -11 9 -18 9 -30
-4 -9 -9 -20 -16 -25 -16 -17 0 2 -30 19 -31 10 0 7 -4 -8 -10 -14 -5 -31 -19
-38 -29 -8 -12 -26 -20 -41 -20 -51 0 -71 -11 -77 -41 -6 -26 -8 -27 -21 -14
-18 17 -54 20 -54 4 0 -5 5 -7 10 -4 23 14 7 -26 -24 -61 -26 -28 -31 -40 -20
-42 8 -2 12 -7 9 -12 -10 -16 13 -20 39 -9 26 12 35 29 16 29 -5 0 -10 -4 -10
-10 0 -14 -13 -12 -36 6 -16 13 -16 15 -1 10 9 -3 17 -1 17 4 0 6 17 8 40 5
23 -3 40 -1 40 5 0 12 22 9 32 -4 4 -6 2 -18 -4 -29 -5 -10 -7 -21 -4 -25 3
-3 6 0 6 6 0 7 7 12 17 12 14 0 14 -2 -2 -20 -19 -21 -11 -27 14 -11 17 11 43
3 35 -10 -3 -5 -10 -6 -16 -3 -8 5 -9 1 -5 -10 4 -10 7 -23 7 -29 0 -7 5 -6
11 3 8 11 9 8 4 -15 -9 -40 -14 -44 -31 -21 -7 11 -17 16 -21 12 -4 -4 -3 -10
3 -14 6 -4 17 -18 24 -32 12 -22 12 -24 -3 -12 -13 11 -16 10 -19 -9 -4 -27
-28 -38 -28 -12 0 10 -4 24 -9 31 -7 11 -13 9 -29 -8 l-20 -22 -7 31 c-4 17
-10 31 -14 31 -16 0 -19 -13 -8 -34 22 -36 15 -61 -15 -61 -38 -1 -46 -13 -14
-21 25 -6 26 -8 11 -23 -21 -24 -19 -48 5 -56 11 -3 20 -11 20 -17 0 -5 -7 -8
-15 -4 -10 3 -15 -1 -16 -12 -1 -36 -10 -66 -21 -73 -7 -4 -4 -11 9 -17 18
-10 20 -8 16 11 -7 34 14 80 33 73 8 -3 12 -2 9 4 -3 6 4 10 17 10 17 0 19 -3
9 -9 -8 -5 -10 -14 -6 -22 6 -8 4 -11 -6 -7 -12 5 -14 -2 -10 -31 4 -29 6 -31
9 -11 2 15 13 30 27 37 29 13 29 13 13 -24 -6 -15 -10 -32 -9 -36 1 -5 -3 -6
-8 -3 -5 3 -14 -1 -20 -8 -8 -9 -8 -17 -2 -20 5 -3 11 0 14 6 3 7 4 -8 3 -34
-1 -26 -6 -51 -10 -55 -4 -5 -6 -3 -4 2 2 6 -10 24 -26 40 -21 22 -27 25 -21
10 4 -11 8 -26 8 -32 0 -7 4 -13 8 -13 12 0 4 -26 -14 -44 -20 -20 -21 -28 -7
-42 6 -6 3 -10 -9 -11 -14 -1 -17 4 -13 24 3 15 -1 29 -9 34 -11 7 -11 9 -1 9
8 0 10 5 6 12 -5 8 -12 3 -19 -16 l-12 -29 -7 27 c-4 17 0 40 13 65 18 39 18
39 0 28 -11 -7 -19 -19 -20 -27 -1 -8 -4 -4 -8 10 -4 15 -3 28 3 33 6 5 2 6
-9 3 -16 -5 -25 2 -39 28 -10 19 -16 42 -13 50 4 9 3 24 -1 33 -4 13 -9 4 -13
-27 -4 -25 -2 -53 3 -64 7 -13 7 -16 -1 -12 -10 6 -16 -20 -12 -47 1 -4 -4
-17 -10 -29 -6 -11 -7 -18 -1 -14 5 3 12 -3 15 -14 3 -11 1 -23 -4 -26 -13 -8
-11 -48 3 -62 18 -18 4 -24 -26 -12 -15 5 -24 14 -21 20 3 5 0 10 -9 10 -8 0
-23 3 -33 7 -16 6 -16 5 -4 -10 7 -9 9 -17 3 -17 -5 0 -15 7 -23 16 -10 13
-10 17 2 25 12 7 12 9 -1 10 -8 1 -23 1 -32 0 -20 -2 -25 15 -6 21 6 2 8 10 4
17 -6 9 -11 8 -22 -6 -8 -11 -13 -13 -14 -5 0 6 -7 12 -16 12 -9 0 -14 -6 -11
-13 3 -8 -1 -14 -9 -14 -8 0 -14 6 -14 13 0 6 -6 12 -12 11 -38 -1 -49 4 -46
21 2 11 -3 26 -10 35 -12 14 -11 16 8 12 25 -5 40 23 19 35 -15 10 -32 3 -24
-11 3 -5 -1 -6 -9 -3 -9 3 -16 11 -16 16 0 6 -6 8 -14 5 -8 -3 -20 1 -26 8 -7
8 -16 12 -21 9 -5 -3 -9 1 -9 9 0 8 -7 18 -16 21 -24 9 -27 8 -21 -14 3 -11 2
-20 -3 -20 -4 0 -10 16 -12 35 -4 37 0 42 21 22 11 -10 12 -7 6 13 -7 24 -7
24 9 5 8 -11 16 -15 16 -8 0 7 -10 21 -22 33 -12 11 -19 23 -15 26 9 9 39 -4
33 -15 -3 -5 1 -14 9 -21 8 -7 15 -18 15 -24 0 -7 8 -12 18 -13 14 -1 17 6 16
41 -1 24 -4 48 -8 54 -4 7 -2 13 3 13 6 1 15 2 20 3 5 0 13 5 18 10 4 5 -4 7
-19 4 -16 -3 -28 -1 -28 3 0 8 23 13 43 10 4 -1 1 13 -8 31 -12 24 -12 28 -2
16 8 -10 19 -18 25 -18 18 0 24 20 12 35 -7 8 -9 15 -5 15 5 0 0 9 -10 20 -10
11 -13 20 -7 20 7 0 12 -5 12 -10 0 -6 6 -5 14 2 12 11 11 14 -3 19 -9 4 -29
-4 -48 -18 -23 -17 -33 -21 -39 -12 -4 7 -3 9 4 5 12 -7 26 29 17 44 -3 5 0
10 8 10 11 0 14 9 12 35 -2 19 0 37 5 40 5 3 7 12 4 20 -5 12 -10 12 -32 -3
-14 -9 -23 -11 -19 -4 5 6 4 12 -2 12 -6 0 -11 5 -11 11 0 8 5 8 15 -1 13 -10
15 -9 15 9 0 12 -4 19 -10 16 -5 -3 -10 3 -10 15 0 12 -4 19 -9 15 -5 -3 -12
-1 -16 5 -4 6 -11 8 -16 5 -15 -10 -10 22 6 35 8 7 15 18 15 24 0 7 -4 6 -9
-2 -11 -19 -21 47 -14 93 6 35 10 38 48 36 16 0 14 2 -7 12 -26 12 -26 13 -8
25 11 7 20 19 20 27 0 8 5 15 11 15 5 0 7 5 4 10 -10 16 -33 12 -38 -7 -4 -17
-5 -17 -6 0 0 10 -5 16 -10 13 -5 -3 -11 1 -15 9 -3 8 -1 17 4 20 16 10 12 37
-7 51 -17 12 -17 12 2 11 11 -1 23 -6 27 -11 3 -5 14 -2 23 7 14 14 14 17 2
17 -8 0 -18 7 -21 16 -9 24 -8 25 14 12 26 -17 36 -4 21 28 -11 26 -12 26 -26
8 -13 -17 -16 -17 -25 -4 -14 22 -12 33 5 26 13 -5 20 18 17 55 0 3 3 22 7 42
6 23 5 35 -1 34 -5 -1 -18 13 -27 30 -10 18 -21 30 -24 27 -3 -4 -5 3 -4 14 1
15 5 18 13 11 8 -6 14 -5 18 6 4 10 2 14 -5 9 -8 -4 -9 1 -4 17 4 17 3 20 -3
10 -11 -15 -27 2 -17 18 3 5 -1 15 -8 23 -7 7 -12 34 -12 61 0 40 -2 47 -20
48 -20 0 -20 0 0 9 20 9 20 9 -1 15 -19 6 -21 10 -11 40 5 19 17 36 26 38 12
4 12 5 -3 6 -10 0 -28 -9 -38 -21 l-20 -23 7 33 c5 24 3 33 -9 38 -9 3 -12 12
-9 22 6 15 4 15 -14 0 -11 -10 -25 -18 -32 -18 -8 0 -11 -6 -7 -15 3 -8 1 -15
-4 -15 -6 0 -10 7 -10 15 0 8 -4 15 -8 15 -4 0 -13 14 -19 31 -11 28 -13 29
-35 17 -12 -7 -28 -20 -35 -28 -7 -8 -13 -10 -13 -5 0 6 5 16 12 23 9 9 9 12
0 12 -7 0 -12 5 -12 12 0 9 3 9 11 1 9 -9 15 -8 24 0 9 9 9 15 -3 27 -12 11
-16 12 -20 2 -2 -7 -7 -10 -11 -7 -5 2 -14 -7 -21 -21 -8 -13 -19 -23 -26 -20
-9 3 -11 -1 -7 -11 4 -11 2 -14 -5 -9 -7 4 -9 19 -5 36 4 20 2 30 -7 30 -8 0
-10 8 -6 25 5 18 3 23 -8 19 -8 -3 -17 0 -21 6 -3 6 -3 10 2 9 27 -5 34 2 19
17 -9 8 -21 12 -28 8 -8 -5 -9 -2 -5 11 4 9 2 24 -4 31 -9 11 -8 20 4 38 15
23 15 24 -14 30 -17 3 -38 13 -47 23 -15 15 -16 16 0 11 13 -6 17 1 20 38 2
30 -1 44 -9 44 -7 0 -13 6 -13 14 0 8 -6 17 -12 19 -8 4 -4 8 9 12 18 6 22 12
17 32 -5 19 -2 25 15 30 11 3 18 9 15 14 -3 5 2 9 10 9 9 0 16 5 16 10 0 7 -8
6 -22 -2 -13 -7 -27 -11 -31 -10 -4 1 -15 -4 -23 -13 -9 -8 -29 -15 -45 -15
-25 0 -29 3 -20 17 7 14 2 24 -25 49 -34 33 -43 59 -23 66 7 2 4 10 -7 18 -16
14 -17 13 -11 -2 3 -10 2 -18 -3 -18 -6 0 -10 7 -10 16 0 11 -5 14 -16 10 -11
-4 -15 -2 -11 6 17 47 19 60 6 53 -9 -6 -11 -4 -6 7 4 11 -1 18 -15 21 -19 5
-17 27 3 27 6 0 7 -6 3 -12 -5 -8 2 -7 16 3 29 19 41 45 16 36 -10 -4 -16 -1
-16 8 0 8 6 15 13 15 8 0 7 3 -3 10 -12 7 -7 12 23 25 20 8 37 18 37 21 0 3
-4 2 -10 -1 -5 -3 -10 -2 -10 4 0 5 9 12 19 16 11 3 22 12 25 20 7 19 -3 19
-25 -1 -16 -15 -17 -14 -12 6 13 49 77 31 87 -25 5 -26 14 -39 33 -46 21 -8
23 -12 13 -24 -7 -8 -30 -18 -51 -21 -44 -7 -51 -19 -14 -26 13 -3 22 -1 19 4
-3 5 37 8 93 6 87 -3 98 -5 95 -20 -2 -10 2 -18 8 -18 5 0 10 5 10 10 0 6 7
10 15 10 8 0 15 6 15 13 0 17 52 16 58 0 2 -7 -1 -13 -8 -13 -6 0 -8 5 -5 10
3 6 1 10 -4 10 -6 0 -11 -7 -11 -15 0 -8 5 -15 11 -15 5 0 7 -5 3 -11 -5 -8
-9 -8 -14 1 -4 7 -16 9 -29 5 -17 -5 -19 -10 -11 -26 10 -17 6 -23 -12 -20 -4
0 -16 -11 -28 -26 -16 -21 -23 -24 -29 -14 -6 9 -10 5 -13 -13 -6 -30 -7 -30
26 -13 14 8 23 17 19 20 -3 4 -1 7 5 7 7 0 12 -4 12 -10 0 -5 5 -10 11 -10 5
0 7 5 3 12 -5 7 -3 8 5 3 7 -4 11 -18 8 -31 -2 -14 2 -25 11 -29 17 -6 15 -8
32 24 10 19 10 25 -1 32 -10 6 -7 8 9 6 13 -2 27 -8 30 -13 4 -5 16 -14 26
-20 20 -10 31 -44 15 -44 -17 0 -9 -18 11 -23 11 -3 18 -2 15 3 -3 4 3 14 12
21 15 12 16 12 10 -3 -3 -10 -2 -18 2 -18 5 0 11 7 15 15 3 8 11 15 17 15 8 0
7 -5 -2 -17 -12 -15 -12 -16 4 -10 11 4 16 3 12 -3 -3 -6 -3 -15 0 -21 7 -11
75 55 75 73 0 5 6 6 13 3 6 -4 1 3 -13 15 -14 12 -20 19 -13 16 6 -3 13 -1 15
6 3 7 12 9 22 5 9 -4 14 -11 11 -17 -3 -5 -2 -10 4 -10 14 0 29 32 24 48 -4 9
3 11 24 7 15 -4 23 -3 17 2 -6 4 -10 18 -9 30 1 15 -3 19 -13 15 -11 -4 -13
-1 -7 7 4 8 2 17 -6 22 -12 8 -12 11 1 19 8 5 11 10 5 10 -5 0 -3 4 5 10 9 5
19 5 26 -1 6 -5 22 -8 35 -7 18 2 24 -2 23 -14 -1 -10 2 -18 7 -18 5 0 9 5 9
11 0 6 7 9 15 5 8 -3 15 -1 15 4 0 5 -8 11 -17 13 -14 4 -13 5 4 6 25 1 42 21
18 21 -9 0 -13 5 -10 10 3 6 -1 10 -11 10 -13 0 -14 3 -5 14 9 11 9 15 -1 19
-7 3 1 3 18 0 27 -4 32 -2 38 21 4 15 2 35 -4 46 -13 24 -13 53 0 45 6 -3 10
1 10 9 0 9 6 16 14 16 8 0 16 5 18 11 2 5 22 12 46 13 l42 3 0 -48 c0 -27 5
-49 10 -49 6 0 10 -11 10 -24 0 -27 18 -37 70 -41 19 -1 61 -6 92 -10 l57 -8
15 34 14 34 1 -31 c1 -34 17 -46 49 -37 23 6 65 -14 57 -26 -5 -10 65 -21 78
-14 5 3 -3 17 -17 32 -15 15 -24 30 -20 33 3 4 -3 9 -13 12 -31 10 -79 106
-53 106 5 0 20 -15 34 -33 19 -25 34 -34 55 -34 16 0 37 -7 46 -16 9 -10 21
-15 25 -12 5 3 7 -4 5 -15 -2 -12 6 -31 21 -47 13 -14 24 -31 24 -36 0 -12
-41 -100 -50 -107 -26 -21 -50 -72 -44 -94 4 -17 2 -26 -6 -26 -7 0 -9 -8 -5
-21 5 -14 2 -25 -6 -31 -11 -7 -11 -8 1 -6 16 3 20 -2 20 -28 0 -14 -2 -15
-17 -3 -15 13 -15 12 -5 -6 7 -14 7 -26 1 -38 -6 -10 -6 -17 -1 -17 21 0 20
-30 -1 -56 -12 -16 -16 -25 -10 -21 6 4 14 3 18 -3 3 -5 -1 -10 -9 -10 -9 0
-16 -4 -16 -10 0 -5 9 -10 20 -10 11 0 20 6 20 14 0 9 7 12 20 9 23 -6 27 -23
5 -23 -13 0 -13 -3 -3 -20 7 -11 19 -22 26 -25 7 -2 10 0 7 5 -6 9 -2 12 28
14 6 1 18 8 25 16 12 13 13 13 8 -2 -7 -23 10 -23 23 0 10 16 10 16 11 -1 0
-12 -10 -20 -30 -24 -29 -5 -30 -7 -14 -24 23 -25 27 -24 43 14 19 44 40 67
63 67 10 0 18 6 18 14 0 8 14 19 31 25 41 14 42 14 35 -5 -3 -8 -2 -12 3 -9 5
3 13 0 17 -6 5 -8 13 -4 26 12 11 13 16 18 12 10 -5 -11 -3 -13 9 -8 26 10 20
-7 -5 -18 -16 -7 -22 -18 -21 -33 2 -12 -2 -22 -8 -22 -6 0 -8 -9 -4 -21 6
-18 5 -20 -14 -10 -25 14 -26 8 -4 -26 17 -25 17 -26 -7 -19 -24 7 -24 6 -6
-8 11 -9 15 -16 8 -16 -6 0 -28 -17 -47 -37 -33 -34 -36 -36 -30 -13 7 24 7
24 -9 5 -8 -11 -16 -26 -16 -32 0 -7 -4 -13 -9 -13 -5 0 -12 -9 -16 -19 -3
-11 -16 -32 -28 -47 -12 -16 -22 -35 -22 -44 0 -8 -7 -15 -15 -14 -11 1 -16
-11 -18 -40 -1 -22 -6 -43 -10 -46 -18 -13 0 -180 19 -180 5 0 9 -6 9 -14 0
-7 7 -19 15 -26 9 -7 14 -20 13 -29 -3 -12 9 -19 42 -27 31 -8 37 -12 20 -13
-22 -1 -20 -3 16 -21 34 -17 41 -25 41 -50 0 -17 -4 -30 -9 -30 -4 0 -8 -4 -8
-10 0 -5 7 -7 16 -3 12 4 15 0 12 -17 -1 -13 2 -25 9 -27 9 -3 10 4 3 26 -5
19 -5 31 1 31 8 0 10 -15 9 -57 0 -5 -9 -8 -19 -8 -23 0 -41 -14 -20 -16 8 -1
20 -1 26 0 8 1 10 -5 7 -14 -3 -8 -13 -15 -22 -15 -13 0 -13 -2 1 -18 10 -10
17 -24 17 -30 0 -6 7 -9 15 -6 11 5 13 10 5 19 -8 9 -4 11 17 9 16 -2 22 -1
16 2 -7 3 -13 10 -13 16 0 6 7 5 16 -3 12 -9 15 -24 11 -51 -6 -42 6 -50 23
-17 17 30 22 69 10 69 -5 0 -10 9 -10 20 0 13 7 20 19 20 14 0 18 -5 14 -20
-4 -15 -2 -19 10 -15 8 4 13 14 10 25 -3 10 -1 20 4 23 4 3 8 -8 9 -24 1 -16
-2 -29 -6 -29 -4 0 -10 -14 -14 -31 -3 -17 -10 -28 -15 -25 -5 3 -7 -2 -4 -13
3 -11 -2 -21 -12 -25 -14 -5 -15 -9 -4 -22 10 -12 10 -17 0 -23 -8 -6 -9 -15
-2 -33 13 -34 31 -45 31 -19 0 12 -4 21 -10 21 -13 0 -13 21 1 40 8 11 12 12
16 2 2 -6 9 -10 14 -6 5 3 9 0 9 -7 0 -7 2 -10 5 -7 8 7 -6 39 -14 34 -4 -3
-13 -1 -20 4 -11 6 -8 20 14 66 20 42 29 54 32 40 3 -10 0 -23 -6 -29 -6 -6
-11 -15 -11 -19 0 -4 9 1 20 12 11 11 17 26 14 35 -4 8 -2 15 4 15 7 0 6 13 0
40 -6 22 -14 40 -18 40 -4 0 -11 8 -14 17 -6 15 -5 15 13 -1 12 -11 21 -14 26
-7 3 6 13 11 22 11 16 0 15 -27 -3 -75 -6 -16 -1 -14 19 8 15 15 27 32 27 38
0 5 5 9 10 9 6 0 22 12 35 28 13 15 25 22 25 15 0 -7 10 -18 23 -24 18 -9 20
-9 10 1 -20 22 15 47 69 49 11 1 15 7 11 20 -6 25 10 34 64 36 26 1 48 8 54
16 5 8 9 10 9 5 0 -5 7 -3 15 4 12 10 15 10 15 -1 0 -10 3 -10 12 -1 7 7 25
12 41 12 34 0 114 37 121 55 6 16 -34 7 -49 -10 -5 -7 -19 -15 -30 -19 l-20
-6 20 15 c11 9 20 21 20 28 1 7 7 11 15 9 11 -3 11 0 0 12 -10 13 -10 19 1 33
8 9 9 14 3 10 -7 -4 -14 1 -16 11 -6 22 1 44 13 36 5 -3 9 0 9 5 0 10 -12 15
-30 13 -3 0 -7 8 -7 19 -1 11 2 17 8 14 5 -4 14 5 21 19 6 14 15 26 20 26 5 0
3 6 -4 14 -7 8 -16 12 -20 9 -13 -7 -9 12 4 25 10 10 10 15 -1 21 -7 5 -11 13
-7 19 3 6 -2 13 -12 16 -23 8 -50 55 -37 64 12 9 15 72 4 72 -17 0 -31 41 -18
56 8 10 9 18 0 27 -6 8 -8 17 -4 20 3 4 0 7 -8 7 -12 0 -11 2 1 11 12 8 9 10
-12 6 -16 -2 -28 0 -28 4 0 5 5 9 10 9 6 0 10 7 10 15 0 8 -4 15 -10 15 -5 0
-10 5 -10 11 0 6 -6 17 -12 24 -28 31 -38 44 -38 51 0 3 -11 19 -25 36 -14 16
-25 38 -25 48 0 11 -7 17 -17 16 -10 0 -19 8 -21 19 -2 11 -10 23 -18 28 -7 4
-11 16 -9 26 2 10 -6 29 -18 42 -12 13 -21 27 -19 32 1 5 -8 6 -20 3 -13 -3
-17 -3 -10 0 6 3 12 12 12 19 0 14 -27 28 -39 20 -5 -2 -13 7 -19 20 -7 15
-17 23 -26 19 -11 -4 -13 0 -9 17 4 15 0 26 -13 36 -10 8 -18 16 -16 18 9 18
-46 81 -91 104 -15 8 -27 20 -27 27 0 14 -28 27 -41 19 -5 -4 -6 2 -2 12 5 14
3 16 -7 6 -25 -23 -76 15 -84 63 -3 15 -10 30 -16 34 -6 4 -8 14 -4 23 3 9 11
14 17 10 6 -4 7 -1 2 7 -6 10 -11 9 -21 -5 -8 -10 -17 -15 -21 -12 -3 4 -3 7
2 7 4 0 2 6 -4 14 -8 10 -7 21 5 45 9 18 14 41 11 51 -3 13 1 21 13 25 10 3
21 12 24 20 3 10 0 12 -12 8 -15 -6 -15 -5 -3 10 7 9 10 17 6 17 -4 0 -2 6 4
14 9 11 9 19 -1 37 -9 16 -10 23 -2 26 13 5 7 81 -8 100 -6 7 -4 13 4 16 7 3
1 6 -13 6 -17 1 -29 -6 -34 -16 -6 -17 -8 -16 -23 2 -16 20 -44 36 -86 49 -15
5 -17 4 -7 -8 14 -17 0 -23 -61 -25 -29 -1 -36 2 -34 16 5 31 -18 44 -53 32
-27 -10 -30 -13 -19 -27 10 -12 10 -16 1 -19 -20 -7 -28 -4 -28 10 0 12 -6 14
-60 16 -16 1 -25 5 -19 9 6 4 13 15 17 25 5 14 0 13 -27 -8 -38 -29 -46 -31
-46 -11 0 9 -17 16 -46 21 -38 5 -48 3 -61 -12 -8 -10 -12 -12 -8 -5 4 7 1 19
-5 28 -11 12 -14 12 -25 -3 -7 -10 -11 -22 -8 -28 3 -5 0 -5 -7 2 -11 10 -11
15 1 29 13 16 12 16 -11 4 -24 -13 -24 -12 -10 5 14 17 13 17 -9 10 -18 -5
-22 -4 -16 6 6 9 2 11 -16 6 -13 -4 -31 -7 -40 -7 -9 0 -19 -9 -22 -21 -3 -12
-10 -18 -16 -14 -6 3 -9 11 -5 16 3 5 1 16 -5 23 -7 8 -11 18 -10 22 4 23 -2
36 -15 31 -10 -4 -13 -1 -9 9 3 7 1 14 -5 14 -6 0 -13 -6 -15 -12 -4 -10 -6
-10 -6 -1 -1 6 3 14 7 17 12 7 53 -5 47 -14 -3 -5 -1 -11 4 -14 5 -3 11 3 14
14 3 11 2 18 -1 16 -4 -2 -13 2 -20 10 -8 9 -9 14 -2 14 6 0 8 5 5 10 -9 14
-45 12 -45 -3 0 -7 -10 -18 -22 -26 -18 -10 -20 -11 -10 0 19 20 14 29 -15 29
-16 0 -35 5 -43 10 -17 11 -50 -14 -50 -39 -1 -14 -2 -14 -14 2 -18 23 -25 22
-37 -10 -12 -31 -35 -17 -25 15 8 23 40 34 54 20 6 -6 15 -7 21 -4 14 9 14 86
1 86 -6 0 -10 -6 -8 -12 2 -7 -2 -15 -7 -16 -6 -2 -17 -8 -25 -12 -11 -6 -19
-1 -27 16 -6 13 -7 24 -3 24 5 0 8 12 7 28 -3 36 -43 49 -72 23 -11 -10 -37
-26 -57 -36 -24 -11 -38 -24 -38 -36 0 -23 -7 -24 -26 -4 -13 12 -13 15 -2 15
8 0 19 5 25 11 14 14 4 61 -12 55 -9 -3 -11 2 -7 16 4 16 2 19 -9 12 -29 -18
-41 -12 -20 10 18 19 19 25 8 29 -8 3 -19 1 -25 -5 -21 -21 -32 -4 -17 25 8
15 12 35 9 45 -5 14 -4 15 5 2 15 -21 23 -7 15 26 l-7 27 -19 -23 c-10 -12
-21 -20 -25 -16 -11 11 37 44 58 39 15 -4 17 -8 8 -19 -14 -18 -2 -18 15 -1
11 10 11 15 0 25 -7 7 -17 12 -23 12 -17 0 -21 32 -6 53 10 15 11 24 4 33 -8
10 -4 15 16 20 20 5 23 9 13 15 -9 6 -6 9 11 9 24 0 24 1 6 14 -14 10 -25 11
-37 5 -12 -6 -18 -6 -18 0 0 5 8 12 18 15 23 8 18 63 -7 69 -11 3 -9 5 7 6 13
1 22 7 22 17 0 11 6 14 22 9 17 -6 20 -4 15 9 -5 11 -3 15 4 10 8 -5 10 3 7
25 -3 18 0 31 6 31 6 0 4 5 -4 10 -13 8 -12 10 3 10 9 0 17 4 17 10 0 5 7 7
16 3 13 -5 15 -2 10 15 -8 24 10 40 27 23 6 -6 18 -11 27 -11 12 1 12 2 -2 11
-10 5 -18 17 -18 24 0 8 -5 15 -11 15 -5 0 -7 5 -4 10 4 6 14 9 22 8 9 -2 18
3 20 10 3 6 0 12 -6 12 -6 0 -11 7 -11 15 0 18 20 20 21 3 0 -7 5 -2 10 11 9
23 10 24 24 5 14 -18 15 -18 9 0 -6 16 -5 17 16 6 20 -11 22 -10 17 5 -4 9 -7
19 -7 21 0 2 -12 2 -27 -1 l-28 -5 29 11 c24 10 31 9 41 -4 11 -15 14 -15 31
-2 16 13 16 14 2 9 -14 -5 -18 -1 -18 15 0 12 -6 21 -15 21 -20 0 -19 10 3 26
12 9 13 13 3 14 -7 0 -11 6 -7 15 3 8 -2 19 -12 24 -16 10 -16 10 1 11 9 0 17
5 17 12 0 21 31 47 48 40 15 -5 16 -4 2 13 -14 17 -13 18 13 13 15 -3 30 -1
33 4 3 5 13 7 21 4 11 -5 13 -1 8 17 -5 17 -4 19 4 7 8 -12 13 -12 23 -2 6 6
20 12 29 12 9 0 19 7 23 15 3 10 16 13 38 11 18 -2 36 0 39 6 4 5 9 3 12 -6 4
-9 3 -15 -1 -13 -4 1 -9 -3 -10 -8 -2 -6 -8 -16 -14 -22 -6 -7 -8 -13 -5 -13
13 0 57 24 57 31 0 4 10 9 23 11 12 2 22 9 22 16 0 13 23 32 40 31 6 0 -1 -6
-15 -14 -14 -8 -19 -14 -12 -15 7 0 11 -4 8 -9 -8 -12 34 -2 54 13 30 22 62
37 68 32 3 -3 0 -6 -7 -6 -9 0 -9 -3 1 -13 6 -8 22 -11 35 -9 25 5 30 17 11
26 -7 3 -3 3 10 0 12 -3 22 -1 22 5 0 6 5 11 11 11 5 0 7 -5 3 -12 -5 -8 2 -9
24 -5 21 4 32 3 32 -5 0 -6 3 -8 7 -5 3 4 11 3 17 -2 6 -4 25 -11 41 -14 17
-4 25 -4 19 -1 -7 3 -10 14 -7 24 4 16 12 19 45 16 23 -3 48 -13 59 -25 12
-12 26 -18 36 -14 11 4 14 3 9 -5 -4 -7 -1 -15 8 -18 9 -3 14 -10 11 -14 -2
-4 7 -7 20 -7 14 0 25 3 25 8 0 5 16 -1 37 -12 20 -11 45 -18 55 -16 20 6 25
-8 7 -19 -20 -12 12 -23 38 -13 36 13 47 11 33 -6 -11 -13 -8 -15 19 -15 17 0
31 -4 31 -10 0 -5 6 -10 13 -10 7 0 17 -8 24 -19 11 -18 47 -29 104 -34 18 -1
25 -6 21 -16 -4 -10 1 -12 19 -6 17 4 20 4 10 -4 -12 -8 -13 -12 -1 -26 7 -9
19 -14 26 -11 14 6 77 -38 67 -47 -3 -4 -1 -7 5 -7 6 0 23 -11 36 -25 23 -22
29 -24 48 -14 14 8 18 14 10 17 -24 8 -12 24 14 18 17 -5 23 -3 19 4 -6 10 12
14 46 11 9 -1 22 5 29 14 7 8 27 15 45 15 18 0 38 7 45 15 7 8 29 15 49 15 20
0 41 4 47 9 5 5 33 16 61 26 29 9 55 21 58 26 7 11 -62 1 -87 -12 -27 -15 -43
-12 -28 5 6 8 18 12 26 9 8 -3 14 0 14 5 0 6 9 14 20 17 11 4 21 16 21 28 1
17 2 18 6 5 2 -10 9 -18 14 -18 6 0 7 5 4 11 -4 5 1 20 12 31 18 21 18 21 -4
9 -12 -6 -28 -11 -35 -11 -7 1 6 10 29 20 51 25 60 36 30 44 -12 3 -23 1 -25
-4 -6 -16 -22 -12 -22 5 0 8 7 15 15 15 9 0 18 7 21 15 4 8 18 15 32 15 14 0
36 9 48 21 12 12 34 22 48 23 14 0 26 6 26 13 0 7 -7 10 -15 7 -10 -4 -15 0
-15 15 0 13 -5 19 -14 15 -23 -9 -13 22 14 44 14 11 22 23 18 27 -9 9 -61 -43
-54 -54 3 -5 -1 -11 -9 -15 -8 -3 -15 0 -15 6 0 7 -5 6 -15 -2 -8 -6 -19 -9
-24 -5 -6 3 -8 0 -5 -8 3 -8 -2 -17 -10 -20 -11 -4 -13 -1 -9 10 4 11 2 14 -5
9 -16 -10 -15 3 2 36 12 23 12 29 0 39 -9 7 -14 8 -12 3 6 -19 -28 -19 -35 0
-4 10 -1 13 7 10 10 -4 14 3 12 20 0 14 -5 26 -11 26 -5 1 2 8 18 16 15 8 27
20 27 26 0 28 35 85 63 103 17 11 30 23 29 28 -5 15 27 63 62 92 20 16 36 35
36 41 0 6 10 24 22 40 13 16 16 25 8 20 -8 -4 -3 2 13 14 15 12 32 32 38 43
10 21 10 21 -5 3 -9 -11 -16 -16 -16 -11 0 5 -18 -9 -41 -30 l-41 -40 22 44
c13 26 16 40 8 35 -10 -6 -10 -5 0 9 29 35 5 35 -33 -1 -22 -21 -51 -39 -65
-39 l-25 -2 25 19 c17 13 20 20 10 20 -11 1 -9 6 7 19 18 15 20 20 8 25 -9 3
-21 -5 -32 -22 -21 -34 -38 -51 -82 -82 -19 -13 -31 -17 -26 -9 8 12 6 12 -9
0 -12 -10 -20 -11 -28 -3 -7 7 -5 20 11 45 11 19 21 38 21 43 -1 13 -40 -39
-40 -53 0 -13 -57 -63 -72 -63 -6 0 -3 11 6 25 22 33 11 32 -17 -1 -13 -15
-31 -25 -41 -23 -15 3 -9 14 32 57 30 32 55 50 64 47 10 -4 25 16 51 65 41 78
42 94 2 26 -14 -24 -55 -68 -91 -97 -36 -30 -74 -62 -86 -71 -27 -23 -35 -23
-49 4 -9 18 -8 24 6 34 9 7 14 17 11 23 -9 13 36 81 51 76 6 -2 19 2 29 9 15
12 12 13 -21 11 l-38 -3 31 25 c18 13 32 33 32 43 0 11 13 38 29 62 15 24 30
53 33 65 5 19 4 21 -18 11 -13 -6 -21 -15 -17 -21 3 -6 1 -7 -6 -3 -6 4 -25
-4 -42 -19 -40 -33 -51 -24 -17 13 34 35 41 68 13 64 -19 -2 -19 -2 -2 12 12
9 15 16 7 21 -14 9 -40 -13 -51 -43 -7 -17 -14 -22 -27 -18 -16 6 -16 5 0 -7
16 -13 15 -16 -15 -43 -30 -27 -71 -54 -82 -54 -3 0 -5 5 -5 10 0 6 5 9 11 8
6 -2 13 2 16 8 2 6 -7 10 -19 10 -29 -1 -27 27 8 91 32 61 31 88 -1 40 -30
-43 -38 -47 -25 -12 18 48 -1 24 -26 -32 -34 -75 -59 -110 -81 -110 -26 0 -43
21 -32 38 5 8 9 23 9 33 0 11 6 27 14 35 7 9 20 43 29 76 14 59 13 90 -4 64
-5 -8 -9 -9 -9 -4 0 6 -8 -1 -16 -15 -8 -14 -13 -17 -10 -7 3 10 6 27 6 37 0
25 30 55 40 40 4 -7 9 1 12 19 4 24 2 28 -9 20 -17 -15 -17 3 1 54 24 65 7 40
-40 -60 -25 -54 -49 -105 -54 -113 -6 -8 -19 -32 -30 -52 -11 -21 -24 -38 -29
-38 -12 0 -2 72 20 144 l18 58 -24 -22 c-14 -13 -29 -38 -35 -56 -7 -19 -21
-41 -33 -49 -12 -8 -22 -25 -22 -37 0 -39 -24 -31 -36 14 -6 24 -12 49 -12 55
-1 20 -10 5 -13 -20 -5 -46 -11 -61 -35 -79 -13 -10 -29 -22 -36 -28 -25 -20
-33 -10 -18 21 9 17 17 45 18 62 2 18 6 38 11 46 6 10 5 12 -2 7 -15 -9 -15
-5 -2 28 16 44 2 29 -21 -21 -22 -50 -38 -44 -20 7 9 28 9 30 -10 19 -12 -6
-23 -8 -27 -5 -3 3 0 6 6 6 7 0 12 7 12 15 0 20 -13 19 -40 -5 -13 -11 -25
-20 -26 -20 -9 0 20 56 42 83 14 16 23 31 21 33 -8 9 -35 -8 -46 -29 -7 -12
-24 -31 -38 -41 -26 -19 -26 -19 -19 0 4 10 -49 -39 -117 -109 -72 -74 -134
-129 -145 -130 -11 0 -19 -4 -17 -8 3 -3 -4 -14 -15 -24 -15 -14 -29 -16 -69
-10 -66 9 -66 26 -1 24 28 -1 55 2 61 8 6 6 -8 8 -41 7 -48 -3 -68 9 -32 20 9
3 -8 3 -38 0 -121 -11 -272 -3 -278 14 -2 7 -11 12 -20 12 -15 0 -15 -2 -2
-10 11 -7 -3 -10 -45 -10 -33 0 -71 -3 -84 -7 -20 -5 -23 -3 -18 10 3 9 1 18
-6 20 -7 2 2 11 18 21 24 14 25 16 8 13 -13 -3 -26 0 -30 5 -3 7 -1 8 5 4 7
-4 12 -3 12 3 0 10 -46 6 -115 -11 -61 -15 -90 -15 -87 0 2 10 -2 10 -18 2
-11 -6 -20 -17 -20 -25 0 -8 -18 -24 -40 -35 -22 -11 -40 -17 -40 -12 0 10 51
37 63 33 5 -1 6 3 2 9 -6 10 -19 8 -65 -8 -13 -5 -12 -2 1 14 9 10 14 25 12
32 -3 6 10 30 27 52 17 22 27 40 22 40 -12 0 -42 -34 -42 -48 0 -7 -16 -12
-40 -12 -22 0 -40 -4 -40 -10 0 -5 -7 -10 -15 -10 -18 0 -19 18 -2 40 6 9 3 6
-9 -5 -16 -17 -22 -19 -32 -9 -16 18 -15 28 8 69 11 20 15 35 9 35 -8 0 -8 4
-1 13 6 6 11 15 11 20 0 4 8 21 16 37 9 17 11 30 6 30 -5 0 -16 -15 -25 -34
-8 -18 -22 -38 -29 -44 -8 -7 -20 -30 -27 -53 -8 -23 -20 -43 -27 -46 -6 -3
-24 -26 -39 -51 -27 -47 -92 -117 -100 -109 -8 7 105 222 125 239 12 10 21 28
21 42 0 13 14 54 31 91 16 37 29 68 27 70 -2 1 -13 -1 -25 -6z m-86 -201 c-3
-8 -6 -5 -6 6 -1 11 2 17 5 13 3 -3 4 -12 1 -19z m-236 -49 c-2 -8 -3 -25 -2
-38 0 -14 -7 -30 -19 -38 -11 -8 -18 -19 -15 -24 3 -5 -1 -6 -9 -3 -18 7 -21
20 -7 29 6 3 13 26 17 51 5 34 10 44 23 41 9 -2 14 -10 12 -18z m-150 -48 c-7
-12 -20 -21 -31 -21 -10 0 -21 -4 -24 -9 -4 -5 2 -8 11 -7 10 2 21 -2 25 -7 9
-14 -9 -47 -26 -47 -7 0 -21 -9 -31 -20 -23 -25 -47 -27 -38 -2 9 24 37 63 30
40 -4 -10 -2 -20 4 -23 12 -8 29 37 19 50 -9 13 -9 46 0 40 4 -3 18 6 31 18
28 27 46 19 30 -12z m1843 3 c3 -8 2 -12 -4 -9 -6 3 -10 -1 -10 -9 0 -25 19
-18 26 9 5 21 24 37 24 20 0 -12 -33 -85 -39 -85 -3 0 -17 -3 -31 -7 -22 -6
-24 -5 -12 10 28 34 0 34 -32 0 -18 -20 -38 -34 -45 -32 -7 3 2 18 23 39 27
28 85 78 92 80 1 0 5 -7 8 -16z m-1560 -61 c14 -14 24 -28 21 -32 -3 -3 -20 9
-38 27 -17 18 -27 32 -21 32 6 0 23 -12 38 -27z m206 12 c-7 -9 -15 -13 -17
-11 -7 7 7 26 19 26 6 0 6 -6 -2 -15z m1626 -39 c-4 -25 -11 -48 -16 -51 -15
-9 -22 15 -12 43 6 15 13 36 16 46 11 33 19 8 12 -38z m-1582 35 c3 -4 -3 -16
-14 -26 -19 -17 -19 -17 -7 9 14 29 14 29 21 17z m-444 -41 c0 -5 -9 -8 -19
-7 -10 0 -17 7 -14 13 5 13 33 8 33 -6z m693 -26 c10 -19 13 -33 7 -29 -14 9
-42 65 -32 65 5 0 16 -16 25 -36z m1021 -6 c-7 -25 -22 -38 -42 -38 -10 0 -10
4 0 23 23 41 54 51 42 15z m368 0 c-7 -7 -12 -8 -12 -2 0 6 3 14 7 17 3 4 9 5
12 2 2 -3 -1 -11 -7 -17z m373 -9 c-9 -17 -19 -28 -22 -25 -6 6 23 56 32 56 3
0 -2 -14 -10 -31z m-525 6 c0 -9 -15 -25 -34 -36 -22 -13 -33 -26 -29 -35 3
-8 0 -14 -6 -14 -6 0 -11 6 -11 14 0 8 -3 23 -6 33 -5 14 -4 15 4 4 9 -12 15
-9 38 17 31 35 44 40 44 17z m50 -4 c0 -24 -21 -61 -35 -61 -19 0 -19 4 0 40
15 29 35 40 35 21z m-411 -32 c-35 -27 -46 -23 -19 6 12 13 27 22 33 18 5 -3
-1 -14 -14 -24z m711 27 c0 -3 -4 -8 -10 -11 -5 -3 -10 -1 -10 4 0 6 5 11 10
11 6 0 10 -2 10 -4z m-3048 -80 c15 -22 7 -26 -20 -12 -16 8 -34 22 -41 30
-12 14 -10 14 20 4 19 -6 37 -16 41 -22z m408 -16 c-6 -12 -14 -20 -17 -17 -2
3 1 14 8 26 17 26 24 19 9 -9z m2660 -2 c0 -5 -9 -8 -20 -8 -23 0 -26 10 -8
28 9 9 14 9 20 -1 4 -6 8 -15 8 -19z m-1517 -35 c-7 -2 -19 -2 -25 0 -7 3 -2
5 12 5 14 0 19 -2 13 -5z m-268 -73 c3 -8 -7 -3 -23 13 -15 15 -33 24 -38 20
-5 -5 -6 -4 -2 1 4 5 2 16 -5 25 -6 9 4 2 25 -14 20 -17 39 -37 43 -45z m2317
-169 c8 11 9 11 6 1 -4 -16 -22 -18 -25 -2 -1 7 0 6 4 -1 4 -8 8 -7 15 2z
m-3957 -31 c3 -5 1 -10 -4 -10 -6 0 -11 5 -11 10 0 6 2 10 4 10 3 0 8 -4 11
-10z m-135 -73 c0 -4 4 -6 9 -2 11 6 26 -13 17 -22 -9 -9 -56 38 -56 56 1 13
3 12 15 -3 8 -11 15 -24 15 -29z m-37 -11 c6 -15 -1 -26 -15 -26 -4 0 -8 9 -8
20 0 23 15 27 23 6z m4007 -15 c-5 -11 -15 -23 -22 -27 -7 -5 -8 -2 -3 7 21
37 44 55 25 20z m20 -45 c0 -2 -7 -7 -16 -10 -8 -3 -12 -2 -9 4 6 10 25 14 25
6z m-110 -246 c-13 -9 -13 -11 0 -20 8 -5 12 -10 8 -10 -3 0 -12 -2 -20 -5 -9
-4 -13 3 -13 20 0 18 5 25 20 25 17 0 17 -2 5 -10z m-4225 -80 c3 -5 1 -10 -4
-10 -6 0 -11 5 -11 10 0 6 2 10 4 10 3 0 8 -4 11 -10z m3020 -10 c-3 -5 -12
-10 -18 -10 -7 0 -6 4 3 10 19 12 23 12 15 0z m1120 -10 c-3 -5 -10 -10 -16
-10 -5 0 -9 5 -9 10 0 6 7 10 16 10 8 0 12 -4 9 -10z m-1755 -100 c0 -5 -4
-10 -10 -10 -5 0 -10 5 -10 10 0 6 5 10 10 10 6 0 10 -4 10 -10z m1807 -72
c-3 -8 -6 -5 -6 6 -1 11 2 17 5 13 3 -3 4 -12 1 -19z m-2109 -312 c-7 -8 -15
-12 -17 -11 -5 6 10 25 20 25 5 0 4 -6 -3 -14z m-19 -47 c-10 -6 -11 -9 -1 -9
21 0 13 -38 -13 -64 -14 -14 -25 -20 -25 -13 0 7 9 18 20 25 21 13 28 42 9 42
-5 0 -8 -4 -5 -9 10 -16 -27 -22 -42 -8 -12 12 -12 18 0 38 25 44 30 47 51 26
16 -16 17 -21 6 -28z m-2474 -49 c-3 -5 -11 -10 -16 -10 -6 0 -7 5 -4 10 3 6
11 10 16 10 6 0 7 -4 4 -10z m-35 -20 c0 -5 -4 -10 -9 -10 -6 0 -13 5 -16 10
-3 6 1 10 9 10 9 0 16 -4 16 -10z m2022 -72 c-7 -7 -12 -8 -12 -2 0 14 12 26
19 19 2 -3 -1 -11 -7 -17z m438 -18 c0 -5 -2 -10 -4 -10 -3 0 -8 5 -11 10 -3
6 -1 10 4 10 6 0 11 -4 11 -10z m-2540 -39 c0 -12 -28 -22 -34 -12 -3 5 -3 11
1 15 9 9 33 7 33 -3z m1800 -161 c0 -5 -5 -10 -11 -10 -5 0 -7 5 -4 10 3 6 8
10 11 10 2 0 4 -4 4 -10z m932 -248 c-6 -2 -9 -9 -6 -17 3 -7 0 -16 -7 -21 -9
-5 -10 -2 -6 10 5 14 3 17 -8 12 -8 -3 -15 -1 -15 4 0 6 6 10 14 10 8 0 18 10
22 23 7 20 8 21 12 2 2 -10 0 -21 -6 -23z m-56 -66 c10 -8 17 -17 14 -19 -3
-3 -16 3 -29 14 -27 22 -15 26 15 5z m-16 -16 c0 -5 -4 -10 -10 -10 -5 0 -10
5 -10 10 0 6 5 10 10 10 6 0 10 -4 10 -10z m410 -144 c0 -3 -4 -8 -10 -11 -5
-3 -10 -1 -10 4 0 6 5 11 10 11 6 0 10 -2 10 -4z m-78 -38 c-7 -7 -12 -8 -12
-2 0 6 3 14 7 17 3 4 9 5 12 2 2 -3 -1 -11 -7 -17z m548 -12 c0 -3 -4 -8 -10
-11 -5 -3 -10 -1 -10 4 0 6 5 11 10 11 6 0 10 -2 10 -4z m20 -52 c0 -2 -9 -4
-20 -4 -11 0 -20 4 -20 9 0 5 9 7 20 4 11 -3 20 -7 20 -9z m234 -31 c-24 -17
-42 0 -24 22 10 12 16 13 27 3 13 -10 12 -14 -3 -25z m-740 -106 c3 3 6 -1 6
-9 0 -21 26 -30 42 -15 17 17 37 15 48 -3 8 -12 14 -13 41 -3 21 8 38 9 50 3
23 -13 32 -13 23 1 -4 7 0 9 12 6 11 -3 38 -11 61 -17 23 -6 43 -15 45 -21 3
-9 25 -16 56 -18 7 -1 10 -5 7 -11 -3 -6 1 -7 9 -4 9 4 18 -1 22 -10 3 -9 13
-16 20 -16 14 0 24 -7 59 -37 7 -7 23 -13 36 -13 17 0 19 -3 10 -14 -9 -11 -9
-15 0 -18 9 -3 10 -14 2 -46 -6 -22 -8 -44 -5 -47 3 -3 7 -25 7 -49 2 -41 0
-45 -27 -48 -15 -3 -25 -2 -23 1 3 3 -9 12 -27 21 -18 8 -33 21 -33 27 0 7 -6
18 -12 25 -18 17 -16 28 3 28 12 0 8 7 -12 22 -16 12 -32 28 -37 35 -4 7 -14
10 -22 7 -9 -4 -15 0 -15 10 0 9 -1 16 -2 16 -68 9 -179 9 -224 0 -108 -21
-188 -42 -229 -60 -22 -10 -51 -22 -65 -25 -14 -4 -32 -13 -40 -19 -48 -38
-99 -37 -68 1 11 14 11 16 -2 8 -12 -8 -12 -5 1 15 10 14 24 24 33 22 9 -2 16
3 16 9 0 7 3 10 6 6 4 -3 14 4 24 16 15 18 16 23 3 32 -14 11 -9 45 8 45 4 0
6 7 2 16 -5 13 -2 15 13 10 10 -3 25 -2 32 3 12 7 -27 18 -85 23 -20 2 -24 28
-5 28 9 0 28 3 42 5 14 3 19 3 13 -1 -15 -6 -18 -24 -5 -24 5 0 14 11 20 25
10 22 18 25 67 25 54 0 76 15 33 23 -23 4 -23 4 2 14 14 6 32 7 41 2 9 -4 19
-5 23 -2z m-229 -127 c-3 -5 -1 -10 6 -10 7 0 10 -3 6 -6 -9 -9 -28 6 -22 17
4 5 8 9 11 9 3 0 2 -4 -1 -10z m14 -69 c8 -5 9 -11 3 -15 -5 -3 -15 1 -22 9
-14 16 -3 20 19 6z m-454 -101 c3 -5 -1 -10 -10 -10 -9 0 -13 5 -10 10 3 6 8
10 10 10 2 0 7 -4 10 -10z m853 -2 c15 -15 15 -40 0 -73 -14 -31 -21 -31 -61
-3 -18 13 -33 22 -34 20 -12 -10 -22 1 -15 16 5 9 7 23 4 31 -3 8 1 12 9 9 8
-3 13 -12 11 -21 -5 -27 14 -28 27 -1 6 14 16 22 21 19 6 -3 10 -1 10 4 0 14
13 14 28 -1z m692 -108 c0 -5 -4 -10 -10 -10 -5 0 -10 5 -10 10 0 6 5 10 10
10 6 0 10 -4 10 -10z m-1640 -31 c0 -9 -6 -20 -12 -22 -7 -3 -3 -6 9 -6 25 -1
82 -51 58 -51 -8 0 -19 9 -25 20 -6 11 -15 20 -21 20 -6 0 -8 -4 -5 -9 3 -5
-1 -12 -10 -15 -23 -9 -24 -8 -24 13 0 11 -5 23 -10 26 -14 9 5 42 24 42 9 0
16 -8 16 -18z m-50 -43 c0 -2 -7 -7 -16 -10 -8 -3 -12 -2 -9 4 6 10 25 14 25
6z m617 -42 c-3 -3 -12 -4 -19 -1 -8 3 -5 6 6 6 11 1 17 -2 13 -5z m1020 -160
c-3 -3 -12 -4 -19 -1 -8 3 -5 6 6 6 11 1 17 -2 13 -5z m-1332 -34 c3 -5 2 -10
-4 -10 -5 0 -13 5 -16 10 -3 6 -2 10 4 10 5 0 13 -4 16 -10z m104 -21 c-22
-13 -39 -11 -33 5 7 17 37 26 43 13 2 -5 -3 -13 -10 -18z m1261 -166 c-1 -24
-2 -26 -11 -10 -5 9 -7 22 -4 27 10 17 15 11 15 -17z m32 20 c-6 -2 -10 -9 -6
-14 3 -5 0 -9 -5 -9 -12 0 -14 13 -4 23 3 4 11 7 17 6 6 0 5 -3 -2 -6z m-72
-32 l0 -25 -20 22 c-11 12 -20 23 -20 26 0 3 9 4 20 3 14 -1 20 -8 20 -26z
m-33 -23 c-3 -8 -6 -5 -6 6 -1 11 2 17 5 13 3 -3 4 -12 1 -19z m-277 -98 c0
-5 -2 -10 -4 -10 -3 0 -8 5 -11 10 -3 6 -1 10 4 10 6 0 11 -4 11 -10z m-1343
-46 c-3 -3 -12 -4 -19 -1 -8 3 -5 6 6 6 11 1 17 -2 13 -5z m1873 -309 c0 -8
-4 -15 -10 -15 -5 0 -10 7 -10 15 0 8 5 15 10 15 6 0 10 -7 10 -15z m40 0
c-12 -15 -30 -12 -30 6 0 5 10 9 21 9 18 0 19 -2 9 -15z m403 -40 c-3 -9 -8
-14 -10 -11 -3 3 -2 9 2 15 9 16 15 13 8 -4z m-421 -21 c-5 -27 -8 -27 -26 1
-16 24 -16 25 6 21 16 -2 22 -9 20 -22z m-40 -96 c-7 -7 -12 -8 -12 -2 0 6 3
14 7 17 3 4 9 5 12 2 2 -3 -1 -11 -7 -17z m-56 -16 c-17 -16 -18 -16 -5 5 7
12 15 20 18 17 3 -2 -3 -12 -13 -22z m-1416 14 c0 -3 -4 -8 -10 -11 -5 -3 -10
-1 -10 4 0 6 5 11 10 11 6 0 10 -2 10 -4z m1441 -24 c-16 -29 -48 -54 -56 -43
-8 14 2 31 19 31 8 0 19 7 26 15 17 20 23 19 11 -3z m-1395 -179 c-8 -8 -36
10 -36 25 0 13 3 12 20 -3 11 -10 18 -20 16 -22z m24 -23 c0 -5 -2 -10 -4 -10
-3 0 -8 5 -11 10 -3 6 -1 10 4 10 6 0 11 -4 11 -10z m1150 -12 c0 -6 -6 -5
-15 2 -8 7 -15 14 -15 16 0 2 7 1 15 -2 8 -4 15 -11 15 -16z m23 -93 c21 8 37
-10 30 -33 -3 -12 -9 -19 -15 -16 -5 3 -6 15 -3 27 2 12 2 16 -1 9 -9 -19 -34
5 -33 32 2 21 2 21 6 -1 2 -12 10 -20 16 -18z m67 -6 c0 -6 -4 -7 -10 -4 -5 3
-10 11 -10 16 0 6 5 7 10 4 6 -3 10 -11 10 -16z m70 -41 c0 -4 -6 -5 -14 -2
-8 3 -12 12 -9 21 5 12 7 12 14 1 5 -7 9 -16 9 -20z m-1337 -18 c3 -11 1 -20
-4 -20 -5 0 -9 9 -9 20 0 11 2 20 4 20 2 0 6 -9 9 -20z m1242 -30 c3 -5 1 -10
-4 -10 -6 0 -11 5 -11 10 0 6 2 10 4 10 3 0 8 -4 11 -10z m-259 -115 c-3 -8
-1 -15 4 -15 6 0 10 -4 10 -10 0 -5 -9 -10 -21 -10 -11 0 -17 -4 -14 -10 3 -5
1 -10 -4 -10 -6 0 -11 7 -11 15 0 8 4 15 9 15 5 0 7 9 4 20 -4 14 0 20 12 20
11 0 15 -5 11 -15z m155 1 c5 3 9 0 9 -5 0 -6 -9 -11 -20 -11 -20 0 -26 11
-13 24 4 4 9 2 11 -3 2 -6 8 -9 13 -5z m49 -91 c-7 -9 -15 -13 -18 -10 -3 2 1
11 8 20 7 9 15 13 18 10 3 -2 -1 -11 -8 -20z m280 -115 c-7 -4 -10 -12 -6 -18
4 -6 -3 -6 -18 1 -21 10 -22 13 -8 23 9 7 22 9 30 6 10 -4 11 -7 2 -12z m-859
-93 c-7 -7 -9 -1 -6 19 6 48 8 50 12 20 3 -16 0 -33 -6 -39z m149 -57 c0 -5
-4 -10 -10 -10 -5 0 -10 5 -10 10 0 6 5 10 10 10 6 0 10 -4 10 -10z m20 -70
c0 -5 -5 -10 -11 -10 -5 0 -7 5 -4 10 3 6 8 10 11 10 2 0 4 -4 4 -10z m12 -44
c3 3 9 1 13 -5 3 -6 -1 -11 -9 -11 -9 0 -16 -4 -16 -10 0 -5 -4 -10 -10 -10
-5 0 -7 7 -4 15 4 8 0 23 -7 33 -13 16 -12 16 7 -1 11 -9 23 -14 26 -11z m115
2 c2 -18 0 -20 -7 -8 -12 18 -13 30 -2 30 4 0 9 -10 9 -22z m313 -54 c0 -11
-31 18 -42 40 -8 16 -4 15 16 -6 14 -15 26 -30 26 -34z m-380 6 c0 -5 10 -10
23 -10 18 0 19 2 7 10 -17 11 -9 13 14 4 15 -6 15 -8 -1 -21 -10 -8 -13 -12
-6 -9 6 4 14 2 18 -4 3 -5 -5 -14 -18 -19 -13 -5 -27 -17 -31 -26 -3 -9 -2
-13 4 -10 6 3 10 -2 10 -11 0 -16 2 -15 21 2 12 10 25 29 30 42 5 12 14 22 21
22 10 0 10 -2 -1 -9 -7 -5 -10 -14 -6 -21 5 -7 -3 -21 -20 -36 -32 -27 -22
-32 14 -7 23 16 24 16 19 -5 -4 -12 -3 -24 1 -26 4 -3 6 -17 5 -33 -1 -15 -3
-34 -3 -40 -1 -19 -21 -16 -21 3 0 8 -5 12 -11 8 -6 -3 -9 -14 -6 -24 3 -13
-1 -17 -17 -17 -16 0 -21 6 -23 25 0 15 -6 28 -12 30 -6 2 -9 7 -6 12 3 4 -3
6 -14 3 -19 -5 -36 21 -25 38 3 5 2 14 -2 21 -12 19 -22 -24 -12 -52 l8 -25
-21 25 c-11 14 -18 19 -14 13 3 -7 1 -13 -4 -13 -6 0 -11 -5 -11 -11 0 -5 5
-7 12 -3 7 4 8 3 4 -5 -12 -19 -27 -1 -20 22 6 20 5 21 -11 7 -14 -11 -17 -11
-11 -1 7 10 3 11 -15 6 -21 -7 -22 -6 -10 9 12 15 8 20 -11 17 -11 -1 -10 31
1 48 7 10 12 8 24 -9 14 -21 17 -21 31 -7 9 8 13 22 10 31 -9 24 5 39 23 25
12 -10 16 -10 24 2 5 8 9 20 9 27 0 6 7 12 15 12 8 0 15 -4 15 -10z m-755 -10
c3 -5 1 -10 -4 -10 -6 0 -11 5 -11 10 0 6 2 10 4 10 3 0 8 -4 11 -10z m-35
-15 c0 5 5 4 11 -2 6 -6 8 -16 4 -23 -9 -15 -35 6 -35 29 0 14 2 14 10 1 5 -8
10 -11 10 -5z m674 -12 c-13 -10 -20 -10 -23 -2 -4 14 19 30 33 22 5 -3 1 -12
-10 -20z m-56 -15 c-2 -17 -9 -22 -23 -20 -30 6 -32 12 -11 28 28 20 38 17 34
-8z m-771 -4 c-3 -3 -12 -4 -19 -1 -8 3 -5 6 6 6 11 1 17 -2 13 -5z m743 -75
c0 -7 -6 -4 -15 7 -19 25 -19 40 0 20 8 -8 15 -20 15 -27z m358 11 c-14 -22
-24 -19 -15 5 4 8 11 15 17 15 6 0 6 -7 -2 -20z m-1114 -2 c-3 -4 -9 -8 -15
-8 -5 0 -9 4 -9 8 0 5 7 9 15 9 8 0 12 -4 9 -9z m723 -24 c-9 -9 -28 6 -21 18
4 6 10 6 17 -1 6 -6 8 -13 4 -17z m-745 -87 c10 -20 10 -21 -5 -8 -12 9 -17
10 -17 2 0 -7 -5 -9 -12 -5 -9 6 -9 9 -1 11 7 3 9 11 6 20 -9 23 14 7 29 -20z
m918 24 c0 -6 -4 -13 -10 -16 -5 -3 -10 1 -10 9 0 9 5 16 10 16 6 0 10 -4 10
-9z m144 -96 c3 -8 1 -15 -4 -15 -6 0 -10 7 -10 15 0 8 2 15 4 15 2 0 6 -7 10
-15z m-211 -42 c-4 -22 -9 -30 -19 -26 -8 3 -11 10 -7 16 3 6 1 7 -6 3 -6 -4
-9 -12 -6 -17 4 -5 -1 -9 -9 -9 -10 0 -13 6 -9 18 9 26 24 42 33 37 5 -3 12 0
15 6 11 16 13 7 8 -28z m-260 -3 c9 -11 13 -20 9 -20 -4 0 -15 9 -25 20 -9 11
-13 20 -9 20 4 0 15 -9 25 -20z m473 -25 c-1 -29 -16 -35 -16 -7 0 16 8 32 16
32 1 0 1 -11 0 -25z m-141 5 c3 -5 1 -10 -4 -10 -6 0 -11 5 -11 10 0 6 2 10 4
10 3 0 8 -4 11 -10z m-711 -16 c3 -8 2 -12 -4 -9 -6 3 -10 10 -10 16 0 14 7
11 14 -7z m599 -17 c-13 -5 -23 -17 -24 -26 0 -10 -2 -12 -6 -3 -2 6 -10 10
-16 6 -7 -3 -4 1 5 9 10 8 16 16 14 18 -3 2 8 5 22 5 26 2 26 1 5 -9z m170 -4
c-3 -7 -12 -13 -20 -13 -8 0 -12 -4 -9 -9 3 -5 0 -14 -8 -20 -11 -9 -13 -5
-13 24 1 32 4 35 28 33 17 -1 25 -7 22 -15z m75 -42 c-2 -8 -9 -16 -16 -19 -7
-2 -10 2 -6 12 4 9 1 16 -6 16 -9 0 -10 -11 -6 -35 4 -22 3 -35 -4 -35 -9 0
-14 17 -13 48 1 6 -2 12 -6 12 -4 0 -7 8 -8 18 -1 17 2 17 33 8 21 -7 33 -17
32 -25z m-767 -1 c5 0 9 -5 9 -10 0 -6 -7 -6 -19 2 -12 7 -17 18 -13 27 6 14
7 14 10 -1 2 -10 8 -18 13 -18z m439 0 c0 -5 -2 -10 -4 -10 -3 0 -8 5 -11 10
-3 6 -1 10 4 10 6 0 11 -4 11 -10z m45 0 c17 -8 16 -8 -7 -7 -16 1 -28 5 -28
9 0 10 9 9 35 -2z m-385 -10 c0 -5 6 -9 13 -7 6 1 13 -10 15 -25 2 -14 10 -32
18 -38 8 -7 14 -22 14 -34 0 -17 -2 -18 -10 -6 -5 8 -10 11 -10 6 0 -16 -40
26 -41 43 0 12 -3 11 -8 -4 -5 -11 -4 -21 0 -23 13 -5 11 -19 -4 -25 -9 -3
-12 10 -11 52 1 31 2 59 3 64 2 11 21 9 21 -3z m437 -5 c-4 -8 -2 -17 3 -20 6
-4 10 -1 10 6 0 7 2 10 5 8 2 -3 2 -15 -2 -27 -5 -22 -7 -22 -24 -6 -22 20
-25 40 -6 47 19 8 19 8 14 -8z m-477 -30 c0 -8 -2 -15 -4 -15 -2 0 -6 7 -10
15 -3 8 -1 15 4 15 6 0 10 -7 10 -15z m790 -91 c0 -2 -8 -12 -18 -22 -20 -20
-57 -37 -47 -23 3 5 -1 12 -7 15 -7 2 -2 4 12 3 19 -2 26 3 28 20 2 14 8 20
18 16 8 -3 14 -7 14 -9z m76 -2 c-13 -13 -16 -13 -29 0 -13 13 -12 15 14 15
26 0 28 -2 15 -15z m-230 -29 c-2 -9 -8 -19 -14 -21 -14 -4 -15 0 -6 22 8 21
23 20 20 -1z m199 7 c3 -5 1 -10 -4 -10 -6 0 -11 5 -11 10 0 6 2 10 4 10 3 0
8 -4 11 -10z m-65 -44 c0 -8 -10 -13 -25 -13 -20 0 -23 2 -14 13 6 8 18 14 25
14 8 0 14 -6 14 -14z m-246 -4 c3 -5 -1 -9 -9 -9 -8 0 -12 4 -9 9 3 4 7 8 9 8
2 0 6 -4 9 -8z m327 -12 c6 0 7 6 3 13 -4 6 -3 9 1 4 13 -11 16 -45 5 -52 -6
-3 -7 1 -4 9 3 9 2 16 -4 16 -6 0 -12 -6 -15 -12 -2 -7 -4 1 -4 17 0 17 2 24
4 18 3 -7 9 -13 14 -13z m-121 -50 c0 -5 -2 -10 -4 -10 -3 0 -8 5 -11 10 -3 6
-1 10 4 10 6 0 11 -4 11 -10z m138 -72 c-2 -6 -10 -14 -16 -16 -7 -2 -10 2 -6
12 7 18 28 22 22 4z m-278 -43 c0 -8 -4 -15 -10 -15 -5 0 -7 7 -4 15 4 8 8 15
10 15 2 0 4 -7 4 -15z m263 -70 c4 -8 2 -17 -3 -20 -6 -4 -10 3 -10 14 0 25 6
27 13 6z m228 -185 c8 24 8 24 6 -4 -1 -16 -7 -31 -13 -33 -14 -5 -26 36 -16
51 4 6 9 0 11 -14 l4 -25 8 25z m79 -81 c0 -5 -7 -9 -15 -9 -15 0 -20 12 -9
23 8 8 24 -1 24 -14z m-973 -585 c-3 -3 -12 -4 -19 -1 -8 3 -5 6 6 6 11 1 17
-2 13 -5z m-3640 -55 c-9 -5 -22 -7 -29 -3 -7 5 -8 3 -3 -6 5 -8 3 -11 -6 -8
-8 3 -22 -2 -32 -10 -22 -19 -76 -20 -88 -1 -5 8 -9 9 -9 4 0 -6 5 -16 12 -23
8 -8 5 -14 -14 -21 -59 -22 -128 -39 -128 -31 0 4 6 11 13 14 9 5 9 7 -1 12
-6 3 -10 10 -6 15 6 11 24 12 23 2 -3 -18 2 -33 10 -33 5 0 7 8 4 19 -6 22 25
38 33 17 5 -14 44 -10 44 4 0 5 -9 6 -20 3 -13 -3 -20 0 -20 9 0 7 8 14 18 15
25 2 74 13 85 20 6 3 7 1 3 -5 -4 -7 -1 -12 9 -12 9 0 14 4 11 9 -8 12 4 15
62 19 37 1 43 0 29 -9z m3533 -24 c8 -2 20 -4 25 -5 6 0 2 -5 -8 -11 -21 -13
-53 -4 -61 17 -5 12 -2 15 11 9 10 -4 25 -8 33 -10z m-38 -149 c4 -6 8 -18 7
-26 0 -9 -4 -6 -12 8 -7 12 -16 19 -20 15 -13 -13 -34 -11 -34 3 0 7 4 11 9 8
4 -3 8 -1 8 5 0 12 32 2 42 -13z"/>
<path d="M3440 5760 c0 -5 7 -10 15 -10 8 0 15 5 15 10 0 6 -7 10 -15 10 -8 0
-15 -4 -15 -10z"/>
<path d="M3700 4430 c0 -5 5 -10 11 -10 5 0 7 5 4 10 -3 6 -8 10 -11 10 -2 0
-4 -4 -4 -10z"/>
<path d="M4120 4355 c0 -8 2 -15 4 -15 2 0 6 7 10 15 3 8 1 15 -4 15 -6 0 -10
-7 -10 -15z"/>
<path d="M4370 1995 c5 -14 7 -32 4 -40 -4 -11 -2 -13 9 -9 12 4 13 12 6 37
-5 18 -9 33 -9 34 0 2 -4 3 -10 3 -6 0 -6 -9 0 -25z"/>
<path d="M4420 1922 c9 -19 30 -23 30 -5 0 4 -3 3 -7 0 -3 -4 -12 1 -20 11
-13 15 -13 15 -3 -6z"/>
<path d="M3781 1614 c0 -11 3 -14 6 -6 3 7 2 16 -1 19 -3 4 -6 -2 -5 -13z"/>
<path d="M972 7600 c0 -19 2 -27 5 -17 2 9 2 25 0 35 -3 9 -5 1 -5 -18z"/>
<path d="M5383 7613 c-18 -7 -16 -23 2 -23 8 0 15 7 15 15 0 8 -1 15 -2 14 -2
0 -9 -3 -15 -6z"/>
<path d="M435 7578 c-5 -12 8 -32 40 -65 25 -26 60 -67 78 -90 36 -46 74 -76
64 -50 -8 21 -95 135 -139 182 -30 33 -38 37 -43 23z"/>
<path d="M4845 7571 c-3 -5 -2 -12 3 -15 5 -3 9 1 9 9 0 17 -3 19 -12 6z"/>
<path d="M5153 7524 c-23 -57 -14 -64 14 -11 20 37 24 55 14 61 -3 2 -16 -20
-28 -50z"/>
<path d="M965 7530 c3 -5 8 -10 11 -10 2 0 4 5 4 10 0 6 -5 10 -11 10 -5 0 -7
-4 -4 -10z"/>
<path d="M963 7485 c-3 -9 -3 -18 -1 -21 3 -3 8 4 11 16 6 23 -1 27 -10 5z"/>
<path d="M7460 7484 c-41 -7 -109 -18 -150 -24 -41 -7 -77 -14 -79 -16 -10
-10 8 -11 69 -4 36 5 94 11 130 15 156 16 184 21 188 33 5 16 -57 14 -158 -4z"/>
<path d="M4869 7464 c-9 -24 -6 -44 5 -33 7 7 15 59 10 59 -2 0 -9 -12 -15
-26z"/>
<path d="M5533 7480 c2 -8 10 -14 16 -12 6 1 11 -3 11 -8 0 -6 11 -15 25 -22
13 -6 22 -14 20 -19 -12 -18 15 -17 36 2 l24 20 -24 -11 c-13 -7 -21 -8 -17
-2 3 6 -12 19 -34 31 -22 11 -40 17 -40 13 0 -4 -5 0 -11 8 -9 13 -10 13 -6 0z"/>
<path d="M5486 7433 c9 -38 14 -42 14 -10 0 14 -5 29 -10 32 -7 4 -8 -3 -4
-22z"/>
<path d="M956 7403 c-12 -110 -17 -207 -10 -200 8 8 8 7 19 150 7 99 1 135 -9
50z"/>
<path d="M5476 7349 l-28 -27 27 6 c16 3 30 0 35 -8 5 -9 9 -9 14 -1 4 6 3 11
-2 11 -6 0 -8 8 -5 19 8 30 -9 30 -41 0z"/>
<path d="M6713 7367 c-23 -10 -32 -26 -40 -69 -3 -22 0 -28 14 -28 13 0 15 2
5 9 -18 11 -12 31 21 64 32 32 32 39 0 24z"/>
<path d="M3755 7330 c-3 -5 -1 -10 4 -10 6 0 11 5 11 10 0 6 -2 10 -4 10 -3 0
-8 -4 -11 -10z"/>
<path d="M4927 7310 c-10 -16 -14 -30 -10 -30 5 0 17 14 26 30 10 17 14 30 10
30 -5 0 -17 -13 -26 -30z"/>
<path d="M7550 7277 c0 -18 9 -66 21 -107 26 -94 30 -109 36 -143 8 -39 22
-44 16 -5 -7 42 -11 63 -13 63 -1 0 -3 13 -5 30 -2 16 -9 50 -14 75 -5 25 -13
62 -16 83 -7 46 -25 49 -25 4z"/>
<path d="M2239 7227 c6 -8 7 -18 3 -22 -4 -5 -1 -5 6 -1 10 6 10 11 1 22 -6 8
-14 14 -16 14 -3 0 0 -6 6 -13z"/>
<path d="M931 7138 c1 -37 2 -39 9 -18 12 36 12 60 0 60 -5 0 -10 -19 -9 -42z"/>
<path d="M7339 7143 c0 -5 0 -34 1 -65 1 -46 -2 -58 -14 -59 -37 -3 -76 -19
-76 -30 0 -5 -12 -14 -27 -20 l-28 -11 34 -14 c43 -18 41 -18 41 11 0 25 25
45 56 45 14 0 16 -7 12 -45 -3 -25 -2 -45 3 -45 13 0 29 36 29 63 0 25 5 26
78 11 28 -6 30 -45 3 -83 -15 -21 -17 -28 -6 -28 8 0 14 3 13 6 -2 19 3 31 13
31 6 0 19 10 29 22 14 18 16 27 7 43 -14 27 -33 45 -47 45 -6 0 -9 4 -6 8 3 5
-1 9 -9 9 -8 0 -15 -4 -15 -9 0 -4 -14 -8 -31 -8 -27 0 -30 3 -27 28 2 15 8
26 14 25 6 -1 11 4 11 12 0 8 -4 12 -9 9 -4 -3 -8 3 -8 13 0 27 -38 60 -41 36z"/>
<path d="M5574 7112 c3 -6 -2 -15 -11 -21 -10 -6 -14 -11 -9 -11 5 0 3 -7 -4
-15 -11 -13 -8 -15 13 -15 14 0 29 5 32 10 3 6 -1 10 -10 10 -12 0 -14 4 -5
19 7 14 7 22 -2 27 -6 4 -8 3 -4 -4z"/>
<path d="M5624 7055 c-10 -8 -14 -15 -8 -15 6 0 17 7 24 15 16 19 9 19 -16 0z"/>
<path d="M2040 7006 c0 -2 8 -10 18 -17 15 -13 16 -12 3 4 -13 16 -21 21 -21
13z"/>
<path d="M5559 6989 l-24 -20 28 17 c15 9 27 18 27 20 0 8 -8 4 -31 -17z"/>
<path d="M7089 6981 c-22 -7 -29 -24 -23 -53 3 -17 1 -28 -5 -28 -20 0 -11
-29 16 -56 l27 -27 14 22 c12 17 24 21 66 21 29 0 57 5 64 12 9 9 15 8 27 -8
8 -10 15 -26 15 -34 0 -8 10 -26 21 -40 15 -19 18 -20 10 -4 -9 18 -6 20 26
20 22 0 40 7 48 17 6 9 14 14 17 12 3 -3 11 1 17 9 15 18 -2 17 -37 -3 -32
-17 -54 -7 -48 23 3 18 -1 25 -17 30 -12 3 -23 1 -25 -4 -3 -8 -27 -7 -90 6
-17 3 -22 10 -18 21 5 13 4 14 -8 4 -8 -7 -32 -11 -53 -9 -31 2 -39 7 -41 26
-3 18 2 23 27 28 17 4 28 10 26 15 -6 8 -31 8 -56 0z m234 -144 c3 -8 -1 -14
-9 -14 -15 0 -18 9 -7 20 9 9 10 9 16 -6z"/>
<path d="M7623 6956 c4 -10 7 -24 7 -32 0 -9 4 -13 9 -10 11 7 3 44 -12 53 -7
4 -8 0 -4 -11z"/>
<path d="M153 6860 c0 -30 2 -43 4 -27 2 15 2 39 0 55 -2 15 -4 2 -4 -28z"/>
<path d="M1922 6898 c2 -6 10 -14 16 -16 7 -2 10 2 6 12 -7 18 -28 22 -22 4z"/>
<path d="M7550 6896 c0 -8 6 -16 13 -19 8 -3 14 1 14 9 0 7 -6 15 -14 18 -7 3
-13 -1 -13 -8z"/>
<path d="M1513 6833 c9 -2 25 -2 35 0 9 3 1 5 -18 5 -19 0 -27 -2 -17 -5z"/>
<path d="M120 6701 c0 -12 5 -21 10 -21 6 0 10 6 10 14 0 8 -4 18 -10 21 -5 3
-10 -3 -10 -14z"/>
<path d="M855 6629 c-44 -5 -89 -11 -100 -13 -11 -2 -28 -5 -37 -5 -10 -1 -18
-6 -18 -12 0 -5 3 -8 8 -6 12 8 132 17 235 19 73 1 97 5 97 15 0 15 -55 16
-185 2z"/>
<path d="M5881 6509 c-33 -40 -36 -70 -3 -33 16 16 46 74 39 74 -1 0 -17 -19
-36 -41z"/>
<path d="M5674 6493 c0 -10 13 -28 29 -41 15 -13 24 -29 20 -34 -3 -6 -1 -8 5
-5 13 9 -8 57 -25 57 -7 0 -13 6 -13 14 0 8 -4 17 -9 20 -5 3 -8 -2 -7 -11z"/>
<path d="M7786 6475 c-10 -8 -24 -16 -30 -18 -6 -2 -8 -8 -4 -12 4 -4 14 -2
23 5 8 7 15 9 15 5 0 -4 7 -2 15 5 31 26 14 40 -19 15z"/>
<path d="M7710 6450 c0 -5 5 -10 10 -10 6 0 10 5 10 10 0 6 -4 10 -10 10 -5 0
-10 -4 -10 -10z"/>
<path d="M6845 6370 c-5 -8 -2 -18 10 -27 21 -15 59 -18 50 -3 -3 5 -11 7 -19
4 -7 -3 -17 5 -23 17 -7 18 -11 20 -18 9z"/>
<path d="M5770 6254 c-14 -7 -19 -14 -12 -14 7 0 10 -4 7 -10 -3 -5 -3 -10 2
-10 4 0 13 11 20 25 6 14 10 25 10 24 -1 -1 -13 -7 -27 -15z"/>
<path d="M7720 6265 c-8 -2 -57 -9 -107 -16 -51 -6 -93 -16 -93 -22 0 -5 10
-6 23 -3 12 4 86 9 165 11 78 3 142 7 142 10 0 3 0 10 0 15 0 9 -92 12 -130 5z"/>
<path d="M3965 6240 c-3 -5 1 -10 9 -10 9 0 16 5 16 10 0 6 -4 10 -9 10 -6 0
-13 -4 -16 -10z"/>
<path d="M7420 6219 c-31 -6 -29 -7 17 -8 28 0 54 3 57 8 6 10 -19 10 -74 0z"/>
<path d="M3839 6178 c-6 -25 -6 -38 1 -38 12 0 20 29 10 35 -6 4 -10 5 -11 3z"/>
<path d="M5785 6131 c-3 -6 -13 -7 -22 -4 -12 5 -14 3 -8 -7 6 -10 4 -12 -9
-7 -11 4 -15 3 -10 -4 4 -6 0 -15 -7 -20 -8 -5 -17 -3 -21 4 -6 9 -8 9 -8 0 0
-22 15 -21 63 7 27 15 44 31 39 34 -6 3 -13 2 -17 -3z"/>
<path d="M7687 6054 c-3 -3 -2 -17 3 -30 6 -14 10 -79 11 -145 1 -138 10 -151
15 -22 2 49 5 104 5 123 3 61 -1 80 -14 80 -8 0 -16 -3 -20 -6z"/>
<path d="M897 5996 c6 -10 9 -28 6 -40 -3 -17 -2 -17 7 3 9 20 7 28 -6 40 -15
15 -16 14 -7 -3z"/>
<path d="M5523 5975 c0 -8 4 -12 9 -9 5 3 6 10 3 15 -9 13 -12 11 -12 -6z"/>
<path d="M867 5890 c-17 -29 -14 -38 8 -22 9 6 19 52 12 52 -2 0 -11 -13 -20
-30z"/>
<path d="M5450 5890 c-14 -11 -20 -20 -14 -20 6 0 19 9 29 20 23 25 17 25 -15
0z"/>
<path d="M5518 5810 c12 -11 29 -20 39 -19 14 0 15 2 3 6 -8 4 -21 12 -28 20
-7 7 -18 13 -25 13 -6 0 -1 -9 11 -20z"/>
<path d="M3675 5810 c4 -6 11 -8 16 -5 14 9 11 15 -7 15 -8 0 -12 -5 -9 -10z"/>
<path d="M5390 5791 c0 -6 -10 -11 -22 -11 -21 -1 -21 -2 -5 -11 13 -7 21 -6
32 5 9 9 11 17 5 21 -5 3 -10 1 -10 -4z"/>
<path d="M3600 5750 c-9 -6 -10 -10 -3 -10 6 0 15 5 18 10 8 12 4 12 -15 0z"/>
<path d="M5620 5736 c0 -2 7 -7 16 -10 8 -3 12 -2 9 4 -6 10 -25 14 -25 6z"/>
<path d="M7700 5719 c0 -13 5 -31 10 -39 7 -11 8 -5 4 20 -8 43 -14 51 -14 19z"/>
<path d="M3520 5660 c-6 -11 -8 -20 -6 -20 3 0 10 9 16 20 6 11 8 20 6 20 -3
0 -10 -9 -16 -20z"/>
<path d="M7345 5600 c28 -12 37 -12 30 0 -3 6 -16 10 -28 9 -21 0 -21 -1 -2
-9z"/>
<path d="M7717 5593 c-4 -3 -7 -11 -7 -17 0 -6 5 -5 12 2 6 6 9 14 7 17 -3 3
-9 2 -12 -2z"/>
<path d="M7130 5499 c0 -5 5 -7 12 -3 7 5 9 2 6 -8 -4 -8 0 -15 7 -15 10 0 11
5 4 19 -11 20 -29 24 -29 7z"/>
<path d="M3445 5450 c3 -5 10 -10 16 -10 5 0 9 5 9 10 0 6 -7 10 -16 10 -8 0
-12 -4 -9 -10z"/>
<path d="M3730 5450 c-13 -8 -12 -10 3 -10 9 0 17 5 17 10 0 12 -1 12 -20 0z"/>
<path d="M3695 5430 c-3 -5 -1 -10 4 -10 6 0 11 5 11 10 0 6 -2 10 -4 10 -3 0
-8 -4 -11 -10z"/>
<path d="M3638 5403 c7 -3 16 -2 19 1 4 3 -2 6 -13 5 -11 0 -14 -3 -6 -6z"/>
<path d="M6720 5365 c-10 -12 -10 -15 3 -15 8 0 20 7 27 15 10 12 10 15 -3 15
-8 0 -20 -7 -27 -15z"/>
<path d="M3480 5320 c0 -5 5 -10 10 -10 6 0 10 5 10 10 0 6 -4 10 -10 10 -5 0
-10 -4 -10 -10z"/>
<path d="M3496 5290 c-9 -17 -14 -30 -9 -30 8 0 35 51 30 56 -2 2 -11 -10 -21
-26z"/>
<path d="M3455 5300 c3 -5 8 -10 11 -10 2 0 4 5 4 10 0 6 -5 10 -11 10 -5 0
-7 -4 -4 -10z"/>
<path d="M3510 5271 c0 -5 5 -13 10 -16 6 -3 10 -2 10 4 0 5 -4 13 -10 16 -5
3 -10 2 -10 -4z"/>
<path d="M3720 5269 c0 -5 5 -7 10 -4 6 3 10 8 10 11 0 2 -4 4 -10 4 -5 0 -10
-5 -10 -11z"/>
<path d="M7225 5270 c3 -5 8 -10 11 -10 2 0 4 5 4 10 0 6 -5 10 -11 10 -5 0
-7 -4 -4 -10z"/>
<path d="M3680 5250 c-14 -9 -5 -30 13 -30 7 0 6 4 -3 11 -12 9 -11 10 8 6 12
-3 22 -2 22 3 0 12 -25 19 -40 10z"/>
<path d="M7231 5224 c0 -11 3 -14 6 -6 3 7 2 16 -1 19 -3 4 -6 -2 -5 -13z"/>
<path d="M3510 5200 c0 -11 4 -20 9 -20 6 0 9 9 8 20 -1 11 -5 20 -9 20 -4 0
-8 -9 -8 -20z"/>
<path d="M6359 5086 c17 -20 62 -29 75 -15 8 9 7 10 -6 6 -12 -4 -18 -1 -18 8
0 10 -10 15 -31 15 -26 0 -29 -3 -20 -14z"/>
<path d="M6513 5027 c0 -8 6 -14 14 -14 9 0 10 4 2 14 -6 7 -12 13 -14 13 -1
0 -2 -6 -2 -13z"/>
<path d="M7230 5010 c-12 -8 -11 -10 8 -10 12 0 22 5 22 10 0 13 -11 13 -30 0z"/>
<path d="M3972 4995 c-16 -19 -3 -19 22 0 14 11 16 15 5 15 -8 -1 -20 -7 -27
-15z"/>
<path d="M7093 4992 c-7 -7 -13 -10 -13 -5 0 5 -16 7 -36 5 -43 -5 -37 -14 13
-18 25 -2 41 3 51 14 7 9 11 11 7 5 -4 -9 2 -11 22 -7 15 3 36 6 45 8 37 5 24
11 -25 11 -29 0 -56 -6 -64 -13z"/>
<path d="M7039 4948 c-13 -43 16 -68 75 -66 29 1 34 3 21 11 -9 5 -27 7 -40 4
-19 -3 -26 2 -34 24 -8 24 -19 37 -22 27z"/>
<path d="M7286 4912 c-3 -5 1 -9 9 -9 8 0 12 4 9 9 -3 4 -7 8 -9 8 -2 0 -6 -4
-9 -8z"/>
<path d="M7235 4900 c-3 -5 -1 -10 4 -10 6 0 11 5 11 10 0 6 -2 10 -4 10 -3 0
-8 -4 -11 -10z"/>
<path d="M137 4836 c-4 -10 -1 -13 8 -10 7 3 19 -4 25 -16 16 -30 23 -19 9 14
-13 29 -34 34 -42 12z"/>
<path d="M4752 4785 c-9 -19 -8 -23 3 -19 17 7 27 31 16 38 -4 3 -13 -6 -19
-19z"/>
<path d="M4746 4723 c-6 -14 -5 -15 5 -6 7 7 10 15 7 18 -3 3 -9 -2 -12 -12z"/>
<path d="M0 4722 c0 -5 9 -17 20 -27 26 -23 24 -71 -2 -69 -10 1 -18 -2 -18
-7 0 -5 5 -9 10 -9 12 0 9 -22 -5 -32 -5 -4 -7 -10 -3 -13 3 -3 16 8 28 25 24
34 29 85 11 119 -11 20 -41 30 -41 13z"/>
<path d="M4905 4700 c-3 -5 -2 -10 4 -10 5 0 13 5 16 10 3 6 2 10 -4 10 -5 0
-13 -4 -16 -10z"/>
<path d="M5519 4677 c17 -22 13 -26 -29 -29 -19 -1 -35 3 -38 10 -3 9 -9 9
-25 0 -12 -6 -23 -11 -24 -10 -2 1 -6 1 -10 1 -5 -1 -14 -2 -20 -3 -7 0 -12
-4 -10 -7 1 -3 -4 -13 -12 -22 -11 -14 -11 -18 3 -23 11 -4 14 -13 9 -32 -4
-17 -2 -23 5 -18 11 6 19 2 55 -30 7 -6 27 -9 46 -7 18 3 40 1 50 -3 9 -4 22
-6 30 -5 8 2 12 -3 8 -12 -8 -20 27 -50 60 -52 16 -1 27 -7 25 -14 -3 -13 18
-4 53 23 14 11 15 14 4 10 -10 -3 -19 1 -22 10 -4 11 -1 13 10 9 10 -4 14 -2
10 3 -3 6 2 16 13 24 16 11 16 15 4 27 -8 8 -14 23 -14 32 0 10 -8 25 -17 32
-14 12 -16 12 -9 -1 4 -8 -1 -5 -11 6 -10 12 -24 23 -32 26 -11 3 -10 8 5 22
18 18 17 18 -5 11 -20 -6 -23 -4 -18 10 6 14 1 16 -36 14 -24 -2 -49 1 -57 6
-13 8 -13 6 -1 -8z m71 -17 c0 -5 -9 -10 -20 -10 -11 0 -20 5 -20 10 0 6 9 10
20 10 11 0 20 -4 20 -10z m-20 -40 c0 -17 -3 -19 -19 -10 -32 16 -34 30 -7 30
19 0 26 -5 26 -20z m-100 -89 c0 -6 -4 -13 -10 -16 -5 -3 -10 1 -10 9 0 9 5
16 10 16 6 0 10 -4 10 -9z"/>
<path d="M7776 4642 c-3 -5 1 -9 9 -9 8 0 12 4 9 9 -3 4 -7 8 -9 8 -2 0 -6 -4
-9 -8z"/>
<path d="M67 4608 c2 -5 24 -8 48 -8 38 0 47 -4 62 -27 31 -48 53 -56 53 -19
0 13 -7 30 -17 37 -17 15 -155 30 -146 17z"/>
<path d="M788 4589 c33 -21 50 -21 37 1 -4 6 -13 9 -21 6 -7 -3 -16 -1 -19 4
-4 6 -12 10 -18 10 -7 0 3 -10 21 -21z"/>
<path d="M5315 4550 c-3 -5 -1 -10 4 -10 6 0 11 5 11 10 0 6 -2 10 -4 10 -3 0
-8 -4 -11 -10z"/>
<path d="M4693 4513 c-15 -5 -17 -23 -4 -23 5 0 11 7 15 15 3 8 4 15 3 14 -1
0 -8 -3 -14 -6z"/>
<path d="M7947 4426 c-8 -21 7 -28 24 -13 8 7 12 11 10 10 -2 -2 -10 2 -16 7
-9 8 -14 6 -18 -4z"/>
<path d="M5660 4400 c0 -6 7 -10 15 -10 8 0 15 2 15 4 0 2 -7 6 -15 10 -8 3
-15 1 -15 -4z"/>
<path d="M4810 4389 c0 -5 5 -7 10 -4 6 3 10 8 10 11 0 2 -4 4 -10 4 -5 0 -10
-5 -10 -11z"/>
<path d="M4770 4370 c0 -5 5 -10 11 -10 5 0 7 5 4 10 -3 6 -8 10 -11 10 -2 0
-4 -4 -4 -10z"/>
<path d="M5298 4285 c-31 -17 -40 -42 -10 -27 24 12 160 14 167 2 3 -6 0 -10
-7 -11 -42 -2 -116 -22 -148 -39 -45 -23 -49 -28 -36 -55 8 -19 19 -25 44 -25
21 0 32 5 32 14 0 17 45 27 59 13 6 -6 10 -22 10 -36 -1 -17 -3 -20 -6 -8 -5
21 -17 22 -32 3 -10 -12 -8 -17 9 -26 11 -6 18 -16 14 -21 -3 -6 -20 1 -39 15
-19 15 -40 23 -49 20 -14 -5 -14 -9 -1 -35 18 -33 39 -46 97 -59 24 -4 53 -12
66 -15 17 -6 22 -3 22 9 0 11 5 14 12 10 8 -5 9 -2 5 10 -4 10 -1 19 7 22 17
6 29 44 14 44 -5 0 -8 6 -5 13 2 6 11 11 20 9 8 -1 18 2 22 8 3 5 1 10 -4 10
-18 0 -13 57 6 64 13 5 10 11 -18 32 -86 64 -196 90 -251 59z m189 -83 c7 -5
9 -13 3 -22 -7 -11 -11 -11 -24 -1 -29 24 -11 43 21 23z m-34 -112 c-3 -12 -8
-19 -11 -16 -5 6 5 36 12 36 2 0 2 -9 -1 -20z m0 -55 c-6 -18 -29 -20 -39 -3
-4 6 -3 8 3 5 6 -4 14 0 17 9 3 8 10 13 15 9 6 -3 8 -12 4 -20z"/>
<path d="M3855 4230 c-3 -5 -1 -10 4 -10 6 0 11 5 11 10 0 6 -2 10 -4 10 -3 0
-8 -4 -11 -10z"/>
<path d="M2990 4209 c0 -5 5 -7 10 -4 6 3 10 8 10 11 0 2 -4 4 -10 4 -5 0 -10
-5 -10 -11z"/>
<path d="M4050 4206 c0 -2 8 -10 18 -17 15 -13 16 -12 3 4 -13 16 -21 21 -21
13z"/>
<path d="M3670 4161 c0 -6 4 -13 10 -16 6 -3 7 1 4 9 -7 18 -14 21 -14 7z"/>
<path d="M2947 4139 c-4 -16 -3 -18 9 -8 7 6 11 15 8 20 -8 13 -11 11 -17 -12z"/>
<path d="M3190 4123 c0 -7 -4 -13 -10 -13 -5 0 -10 -4 -10 -10 0 -14 27 -12
33 3 4 10 6 10 6 0 1 -7 5 -13 10 -13 5 0 8 10 7 23 -1 24 -36 34 -36 10z"/>
<path d="M3250 4096 c0 -2 8 -10 18 -17 15 -13 16 -12 3 4 -13 16 -21 21 -21
13z"/>
<path d="M5058 4083 c7 -3 16 -2 19 1 4 3 -2 6 -13 5 -11 0 -14 -3 -6 -6z"/>
<path d="M3193 3936 c-9 -11 -7 -14 11 -12 14 0 22 6 19 14 -6 15 -15 15 -30
-2z"/>
<path d="M5165 3940 c-3 -5 -1 -10 4 -10 6 0 11 5 11 10 0 6 -2 10 -4 10 -3 0
-8 -4 -11 -10z"/>
<path d="M3565 3889 c-11 -16 -1 -19 13 -3 7 8 8 14 3 14 -5 0 -13 -5 -16 -11z"/>
<path d="M3410 3750 c-9 -6 -10 -10 -3 -10 6 0 15 5 18 10 8 12 4 12 -15 0z"/>
<path d="M3110 3718 c0 -33 15 -55 23 -34 4 9 2 16 -3 16 -5 0 -7 9 -5 20 2
11 0 20 -6 20 -5 0 -9 -10 -9 -22z"/>
<path d="M230 3585 c0 -9 5 -15 11 -13 6 2 11 8 11 13 0 5 -5 11 -11 13 -6 2
-11 -4 -11 -13z"/>
<path d="M3326 3533 c-6 -14 -5 -15 5 -6 7 7 10 15 7 18 -3 3 -9 -2 -12 -12z"/>
<path d="M3365 3440 c3 -5 12 -10 20 -10 8 0 17 5 20 10 4 6 -5 10 -20 10 -15
0 -24 -4 -20 -10z"/>
<path d="M3519 3308 c-5 -21 -4 -48 3 -48 4 0 8 -7 8 -17 0 -24 13 -7 15 19 2
18 -22 60 -26 46z"/>
<path d="M5445 3110 c3 -5 8 -10 11 -10 2 0 4 5 4 10 0 6 -5 10 -11 10 -5 0
-7 -4 -4 -10z"/>
<path d="M3570 3070 c0 -5 5 -10 10 -10 6 0 10 5 10 10 0 6 -4 10 -10 10 -5 0
-10 -4 -10 -10z"/>
<path d="M4645 2930 c3 -5 8 -10 11 -10 2 0 4 5 4 10 0 6 -5 10 -11 10 -5 0
-7 -4 -4 -10z"/>
<path d="M5010 2860 c0 -5 5 -10 11 -10 5 0 7 5 4 10 -3 6 -8 10 -11 10 -2 0
-4 -4 -4 -10z"/>
<path d="M4916 2845 c4 -8 8 -15 10 -15 2 0 4 7 4 15 0 8 -4 15 -10 15 -5 0
-7 -7 -4 -15z"/>
<path d="M4990 2830 c-9 -6 -10 -10 -3 -10 6 0 15 5 18 10 8 12 4 12 -15 0z"/>
<path d="M4380 2770 c0 -5 5 -10 11 -10 5 0 7 5 4 10 -3 6 -8 10 -11 10 -2 0
-4 -4 -4 -10z"/>
<path d="M4454 2716 c0 -14 6 -22 13 -19 9 4 10 10 2 24 -13 25 -17 24 -15 -5z"/>
<path d="M4277 2699 c-25 -29 -29 -57 -5 -43 7 5 8 2 4 -5 -5 -7 -14 -10 -22
-7 -8 3 -14 -1 -14 -10 0 -24 20 -55 31 -48 6 4 5 11 -3 21 -11 14 -10 15 10
8 22 -6 23 -5 13 14 -9 16 -9 21 1 21 6 0 3 7 -8 15 -10 8 -17 15 -14 15 37 8
50 8 50 0 0 -18 16 -10 17 9 1 14 -3 17 -18 14 -15 -4 -18 -2 -13 11 9 24 2
20 -29 -15z"/>
<path d="M3614 2692 c-11 -29 -8 -52 6 -52 5 0 9 8 9 18 -1 9 2 27 6 40 10 32
-9 27 -21 -6z"/>
<path d="M4526 2712 c-3 -5 1 -9 9 -9 8 0 15 4 15 9 0 4 -4 8 -9 8 -6 0 -12
-4 -15 -8z"/>
<path d="M4490 2700 c0 -5 5 -10 11 -10 5 0 7 5 4 10 -3 6 -8 10 -11 10 -2 0
-4 -4 -4 -10z"/>
<path d="M4380 2650 c0 -11 5 -20 10 -20 6 0 10 -5 10 -11 0 -5 -6 -7 -12 -3
-10 6 -10 4 0 -7 6 -7 12 -21 12 -31 0 -10 5 -18 10 -18 13 0 13 66 0 91 -14
25 -30 24 -30 -1z"/>
<path d="M3641 2584 c0 -11 3 -14 6 -6 3 7 2 16 -1 19 -3 4 -6 -2 -5 -13z"/>
<path d="M4221 2574 c0 -11 3 -14 6 -6 3 7 2 16 -1 19 -3 4 -6 -2 -5 -13z"/>
<path d="M4840 2576 c0 -2 8 -10 18 -17 15 -13 16 -12 3 4 -13 16 -21 21 -21
13z"/>
<path d="M3993 2515 c-3 -9 -3 -18 -1 -21 3 -3 8 4 11 16 6 23 -1 27 -10 5z"/>
<path d="M3560 2480 c0 -33 2 -38 13 -29 19 18 21 69 2 69 -11 0 -15 -11 -15
-40z"/>
<path d="M7760 2462 c-84 -35 -210 -115 -210 -134 0 -5 -13 -38 -29 -72 -37
-78 -50 -140 -53 -248 -2 -47 -5 -84 -8 -81 -7 7 -39 -216 -39 -277 -1 -68 13
-130 31 -141 7 -5 10 -9 6 -9 -5 0 2 -11 14 -25 21 -24 23 -24 157 -22 87 2
163 10 211 21 48 11 118 18 193 19 111 1 117 2 117 21 0 19 -5 21 -53 19 -92
-4 -230 -23 -297 -41 -87 -23 -309 -20 -327 4 -6 9 -17 48 -24 87 -12 74 -9
111 26 327 8 47 17 119 21 160 9 106 56 225 102 259 15 12 32 25 39 31 7 5 17
10 22 10 5 0 16 8 23 18 33 44 186 84 241 62 21 -8 21 -8 -8 -22 -94 -43 -92
-40 -84 -108 8 -69 29 -99 91 -131 39 -20 106 -25 136 -10 9 5 31 15 47 22 36
17 45 27 45 56 0 20 -1 20 -30 -7 -42 -40 -110 -64 -155 -56 -21 4 -52 23 -76
46 -38 36 -41 43 -36 76 9 51 20 61 104 87 l74 24 41 -20 c22 -11 49 -34 60
-51 l20 -31 -6 39 c-3 22 -11 43 -18 48 -10 6 -8 8 5 8 25 0 21 29 -5 34 -38
8 -118 16 -223 21 -82 4 -108 2 -145 -13z"/>
<path d="M4003 2432 c-19 -3 -23 -10 -23 -36 0 -19 7 -39 15 -46 9 -8 15 -9
15 -2 0 6 -4 14 -10 17 -17 11 -11 37 8 33 9 -2 16 -9 15 -15 -3 -17 35 -23
47 -7 14 15 5 34 -15 34 -8 0 -18 6 -22 13 -4 7 -18 11 -30 9z m52 -50 c-6 -6
-35 18 -35 29 0 5 9 1 20 -8 11 -9 17 -19 15 -21z"/>
<path d="M4165 2410 c-3 -5 -2 -10 4 -10 5 0 13 5 16 10 3 6 2 10 -4 10 -5 0
-13 -4 -16 -10z"/>
<path d="M5145 2380 c-3 -5 -1 -10 4 -10 6 0 11 5 11 10 0 6 -2 10 -4 10 -3 0
-8 -4 -11 -10z"/>
<path d="M5085 2369 c-4 -6 -5 -12 -2 -15 2 -3 7 2 10 11 7 17 1 20 -8 4z"/>
<path d="M1300 2361 c0 -10 19 -25 25 -20 1 2 -3 10 -11 17 -8 7 -14 8 -14 3z"/>
<path d="M4980 2301 c0 -6 4 -13 10 -16 6 -3 7 1 4 9 -7 18 -14 21 -14 7z"/>
<path d="M1336 2275 c-3 -8 -1 -15 4 -15 6 0 10 7 10 15 0 8 -2 15 -4 15 -2 0
-6 -7 -10 -15z"/>
<path d="M1213 2273 c4 -3 3 -11 -2 -17 -11 -13 -27 -94 -16 -84 4 3 10 21 15
40 4 18 11 41 15 51 5 11 3 17 -6 17 -7 0 -9 -3 -6 -7z"/>
<path d="M4181 2253 c-7 -8 -11 -16 -8 -19 2 -2 10 2 17 11 17 20 9 27 -9 8z"/>
<path d="M6980 2250 c-13 -8 -12 -10 3 -10 9 0 17 5 17 10 0 12 -1 12 -20 0z"/>
<path d="M4905 2180 c-3 -5 -2 -10 4 -10 5 0 13 5 16 10 3 6 2 10 -4 10 -5 0
-13 -4 -16 -10z"/>
<path d="M935 2154 c-19 -19 -25 -33 -22 -53 5 -29 53 -88 63 -78 3 3 -6 16
-20 28 -40 35 -30 109 15 109 31 0 47 -23 52 -71 l4 -44 1 46 c2 36 -3 50 -21
67 -30 28 -40 28 -72 -4z"/>
<path d="M3658 2163 c7 -3 16 -2 19 1 4 3 -2 6 -13 5 -11 0 -14 -3 -6 -6z"/>
<path d="M832 2100 c-6 -11 -12 -26 -12 -34 0 -8 -6 -17 -12 -19 -10 -4 -10
-6 0 -6 7 -1 18 10 24 24 12 27 27 32 46 13 15 -15 16 -3 2 23 -14 24 -32 24
-48 -1z"/>
<path d="M4110 2085 c0 -14 2 -25 4 -25 2 0 6 11 8 25 3 14 1 25 -3 25 -5 0
-9 -11 -9 -25z"/>
<path d="M4868 2092 c-5 -16 -1 -25 14 -33 25 -13 39 -2 17 14 -9 7 -18 19
-21 27 -3 10 -6 8 -10 -8z"/>
<path d="M564 2071 c23 -25 106 -69 136 -71 14 -1 39 -1 55 0 23 1 17 4 -25
14 -31 6 -76 24 -101 38 -26 15 -49 24 -53 21 -3 -3 -6 -1 -6 5 0 7 -5 12 -12
12 -6 0 -4 -8 6 -19z"/>
<path d="M3700 2045 c-19 -23 -8 -25 14 -4 11 11 15 19 9 19 -6 0 -16 -7 -23
-15z"/>
<path d="M4921 2024 c0 -11 3 -14 6 -6 3 7 2 16 -1 19 -3 4 -6 -2 -5 -13z"/>
<path d="M4036 2015 c-3 -8 -2 -15 3 -15 4 0 -2 -21 -15 -47 -12 -27 -19 -49
-13 -51 5 -2 9 -8 9 -13 0 -6 -4 -7 -10 -4 -17 11 -11 -4 11 -26 23 -23 52
-19 43 6 -5 11 -2 14 12 9 15 -4 16 -4 5 4 -8 6 -11 17 -7 27 5 14 4 16 -8 6
-15 -12 -46 -5 -46 11 0 6 7 8 15 4 15 -5 21 25 17 77 -1 10 3 15 8 12 6 -3
10 -1 10 4 0 17 -27 13 -34 -4z"/>
<path d="M4886 2015 c-9 -25 -8 -29 14 -43 19 -12 20 -11 14 15 -9 37 -20 48
-28 28z"/>
<path d="M3686 1975 c-3 -8 -1 -15 4 -15 6 0 10 7 10 15 0 8 -2 15 -4 15 -2 0
-6 -7 -10 -15z"/>
<path d="M4985 1980 c-3 -5 -1 -10 4 -10 6 0 11 5 11 10 0 6 -2 10 -4 10 -3 0
-8 -4 -11 -10z"/>
<path d="M8136 1947 c-5 -9 -5 -29 0 -45 7 -25 8 -26 11 -4 3 12 3 32 0 45 -3
19 -4 20 -11 4z"/>
<path d="M3672 1933 c-15 -27 -15 -33 -1 -33 5 0 8 4 5 9 -4 5 -1 11 5 13 7 2
10 11 7 18 -3 11 -8 10 -16 -7z"/>
<path d="M3729 1836 c-1 -17 -3 -23 -6 -13 -8 32 -22 17 -16 -18 3 -21 1 -41
-7 -50 -10 -12 -9 -18 5 -31 15 -16 16 -16 13 2 -2 12 2 18 11 16 8 -2 11 3 8
12 -3 8 -3 17 0 20 4 3 7 17 9 31 1 14 5 33 8 43 4 13 1 19 -9 19 -10 0 -15
-11 -16 -31z"/>
<path d="M4600 1830 c0 -5 5 -10 10 -10 6 0 10 5 10 10 0 6 -4 10 -10 10 -5 0
-10 -4 -10 -10z"/>
<path d="M3815 1790 c3 -5 8 -10 11 -10 2 0 4 5 4 10 0 6 -5 10 -11 10 -5 0
-7 -4 -4 -10z"/>
<path d="M4570 1776 c0 -8 4 -17 8 -20 13 -8 35 11 28 23 -10 16 -36 14 -36
-3z"/>
<path d="M4673 1783 c-7 -2 -13 -11 -13 -19 0 -17 26 -8 34 12 6 14 0 16 -21
7z"/>
<path d="M3891 1764 c0 -11 3 -14 6 -6 3 7 2 16 -1 19 -3 4 -6 -2 -5 -13z"/>
<path d="M3760 1750 c0 -5 5 -10 10 -10 6 0 10 5 10 10 0 6 -4 10 -10 10 -5 0
-10 -4 -10 -10z"/>
<path d="M4635 1680 c3 -5 8 -10 11 -10 2 0 4 5 4 10 0 6 -5 10 -11 10 -5 0
-7 -4 -4 -10z"/>
<path d="M8115 1637 c-27 -29 -55 -69 -55 -79 0 -19 29 -5 58 28 46 52 43 101
-3 51z"/>
<path d="M4770 1530 c0 -5 5 -10 10 -10 6 0 10 5 10 10 0 6 -4 10 -10 10 -5 0
-10 -4 -10 -10z"/>
<path d="M4670 1424 c0 -8 5 -12 10 -9 6 3 10 10 10 16 0 5 -4 9 -10 9 -5 0
-10 -7 -10 -16z"/>
<path d="M4710 1400 c6 -11 13 -20 16 -20 2 0 0 9 -6 20 -6 11 -13 20 -16 20
-2 0 0 -9 6 -20z"/>
<path d="M444 1207 c-21 -36 -24 -134 -6 -199 l10 -38 -51 1 c-59 1 -92 -10
-124 -40 -28 -26 -27 -26 -68 5 -40 30 -82 37 -112 18 -13 -8 -23 -11 -23 -7
0 5 -4 2 -8 -4 -4 -7 -19 -14 -32 -16 l-25 -4 -2 -147 c0 -87 3 -149 9 -152
21 -13 33 19 33 86 l0 69 34 -2 c27 -2 35 3 42 22 9 22 8 23 -21 17 -23 -4
-36 0 -51 15 l-22 22 39 35 c79 74 164 35 164 -74 0 -93 91 -247 113 -191 10
25 -13 123 -43 184 -25 50 -29 66 -20 83 14 26 43 41 94 46 58 7 91 -8 112
-51 29 -62 116 -119 142 -93 5 5 20 -6 36 -27 27 -36 56 -46 56 -21 0 8 -16
37 -35 66 -19 29 -35 54 -35 56 0 3 -9 17 -21 33 -11 15 -21 34 -23 42 -1 8
-12 37 -25 64 -12 28 -25 64 -28 80 -3 17 -13 39 -23 50 -9 11 -22 34 -29 52
-21 52 -34 57 -57 20z m49 -64 c9 -21 28 -74 43 -118 14 -44 33 -93 41 -109
17 -33 13 -32 -44 9 -37 26 -46 40 -64 99 -20 67 -20 156 0 156 4 0 15 -17 24
-37z m66 -280 c12 -14 19 -28 16 -31 -6 -7 -34 17 -46 40 -15 28 6 22 30 -9z"/>
<path d="M4890 1080 c0 -5 5 -10 10 -10 6 0 10 5 10 10 0 6 -4 10 -10 10 -5 0
-10 -4 -10 -10z"/>
<path d="M6027 1025 c6 -17 25 -15 31 3 2 7 -5 12 -17 12 -14 0 -19 -5 -14
-15z"/>
<path d="M5327 889 c7 -7 15 -10 18 -7 3 3 -2 9 -12 12 -14 6 -15 5 -6 -5z"/>
<path d="M6670 811 c0 -11 5 -23 10 -26 6 -3 10 3 10 14 0 11 -4 23 -10 26 -5
3 -10 -3 -10 -14z"/>
<path d="M8136 679 c-8 -44 -5 -417 4 -454 4 -16 8 86 9 228 0 141 -1 257 -3
257 -2 0 -6 -14 -10 -31z"/>
<path d="M4665 519 c-4 -6 -5 -12 -2 -15 2 -3 7 2 10 11 7 17 1 20 -8 4z"/>
<path d="M4376 502 c-3 -5 -8 -51 -11 -103 -4 -52 -13 -152 -21 -224 -8 -72
-14 -140 -14 -152 l0 -23 598 1 c533 0 591 2 545 14 -29 8 -70 23 -90 34 -92
46 -219 92 -271 97 -31 4 -75 14 -97 24 -22 10 -51 21 -65 25 -14 4 -36 15
-50 24 -14 10 -55 30 -92 45 -47 20 -80 42 -111 76 -48 52 -128 98 -216 124
-30 9 -65 23 -77 31 -13 8 -25 11 -28 7z"/>
<path d="M4644 455 c-6 -19 -9 -35 -7 -35 12 0 40 46 36 57 -8 22 -18 15 -29
-22z"/>
<path d="M6061 445 c0 -12 17 -35 41 -53 13 -11 18 -11 24 0 4 7 4 10 0 6 -4
-3 -21 8 -37 25 -15 18 -28 28 -28 22z"/>
<path d="M6145 380 c3 -5 8 -10 11 -10 2 0 4 5 4 10 0 6 -5 10 -11 10 -5 0 -7
-4 -4 -10z"/>
<path d="M3900 164 c0 -8 5 -12 10 -9 6 4 8 11 5 16 -9 14 -15 11 -15 -7z"/>
<path d="M7095 79 c-10 -15 3 -25 16 -12 7 7 7 13 1 17 -6 3 -14 1 -17 -5z"/>
<path d="M6220 10 c-35 -11 92 -12 145 -1 34 7 28 9 -40 9 -44 0 -91 -4 -105
-8z"/>
<path d="M6433 13 c15 -2 37 -2 50 0 12 2 0 4 -28 4 -27 0 -38 -2 -22 -4z"/>
</g>
</svg>
